<svg width="655" height="566" viewBox="0 0 655 566" fill="none" xmlns="http://www.w3.org/2000/svg">
<path d="M655 464.499H0.5625V464.853H655V464.499Z" fill="#EBEBEB"/>
<path d="M583.352 565.646H516.731V566H583.352V565.646Z" fill="#EBEBEB"/>
<path d="M131.018 476.544H69.226V476.898H131.018V476.544Z" fill="#EBEBEB"/>
<path d="M521.495 474.161H496.377V474.515H521.495V474.161Z" fill="#EBEBEB"/>
<path d="M434.088 483.567H415.659V483.921H434.088V483.567Z" fill="#EBEBEB"/>
<path d="M403.997 483.567H357.611V483.921H403.997V483.567Z" fill="#EBEBEB"/>
<path d="M330.674 477.58H256.081V477.934H330.674V477.58Z" fill="#EBEBEB"/>
<path d="M511.508 43.5132H378.265V464.499H511.508V43.5132Z" fill="#EBEBEB"/>
<path d="M502.516 455.987V52.0258L387.256 52.0258V455.987H502.516Z" fill="#FAFAFA"/>
<path d="M374.273 43.5132H241.029V464.499H374.273V43.5132Z" fill="#EBEBEB"/>
<path d="M374.272 462.853H378.265L378.265 45.173H374.272L374.272 462.853Z" fill="#E0E0E0"/>
<path d="M365.281 455.972V52.0115L250.021 52.0115L250.021 455.972H365.281Z" fill="#FAFAFA"/>
<path d="M572.371 40.3492H180.166C179.706 40.3455 179.265 40.1455 178.939 39.7924C178.613 39.4394 178.429 38.9616 178.426 38.4623C178.429 37.963 178.613 37.4852 178.939 37.1321C179.265 36.779 179.706 36.579 180.166 36.5753H572.371C572.831 36.579 573.272 36.779 573.598 37.1321C573.924 37.4852 574.108 37.963 574.112 38.4623C574.108 38.9616 573.924 39.4394 573.598 39.7924C573.272 40.1455 572.831 40.3455 572.371 40.3492Z" fill="#E0E0E0"/>
<path d="M502.516 60.0701V52.0258L387.256 52.0258V60.0701L502.516 60.0701Z" fill="#E0E0E0"/>
<path d="M502.516 65.5747V52.0115L387.256 52.0115V65.5747H502.516Z" fill="#E0E0E0"/>
<path d="M365.281 81.6492V52.0115L250.021 52.0115V81.6492H365.281Z" fill="#E0E0E0"/>
<g opacity="0.8">
<path opacity="0.8" d="M528.615 27.7507H491.705V459.321H528.615V27.7507Z" fill="#F5F5F5"/>
<path opacity="0.8" d="M518.877 27.7509H501.456V459.321H518.877V27.7509Z" fill="#F0F0F0"/>
<path opacity="0.8" d="M548.418 27.7509H511.508V459.321H548.418V27.7509Z" fill="#F5F5F5"/>
<path opacity="0.8" d="M538.68 112.653H521.259V544.223H538.68V112.653Z" fill="#F0F0F0"/>
<path opacity="0.8" d="M566.873 112.653H529.963V544.223H566.873V112.653Z" fill="#F5F5F5"/>
</g>
<g opacity="0.8">
<path opacity="0.8" d="M238.071 27.7507H184.499V459.321H238.071V27.7507Z" fill="#F5F5F5"/>
<path opacity="0.8" d="M223.922 27.7509H198.635V459.321H223.922V27.7509Z" fill="#F0F0F0"/>
<path opacity="0.8" d="M266.801 27.7509H213.229V459.321H266.801V27.7509Z" fill="#F5F5F5"/>
<path opacity="0.8" d="M252.652 27.7509H227.364V459.321H252.652V27.7509Z" fill="#F0F0F0"/>
<path opacity="0.8" d="M293.58 27.7509H240.008V459.321H293.58V27.7509Z" fill="#F5F5F5"/>
</g>
<path d="M159.067 71.9733H72.6422V282.899H159.067V71.9733Z" fill="#F0F0F0"/>
<path d="M159.067 282.913H161.79L161.79 71.9874H159.067L159.067 282.913Z" fill="#E6E6E6"/>
<path d="M151.214 274.387V80.4858H80.4955L80.4955 274.387H151.214Z" fill="#FAFAFA"/>
<path d="M164.512 387.418H75.7966C73.8456 387.414 71.9752 386.574 70.5944 385.08C69.2136 383.586 68.4346 381.56 68.4276 379.445C68.4346 377.33 69.2136 375.304 70.5944 373.81C71.9752 372.316 73.8456 371.475 75.7966 371.471H164.512C166.461 371.479 168.328 372.321 169.706 373.815C171.084 375.309 171.861 377.332 171.868 379.445C171.861 381.557 171.084 383.581 169.706 385.075C168.328 386.568 166.461 387.411 164.512 387.418Z" fill="#F5F5F5"/>
<path d="M97.1313 387.418H82.5635L66.0063 464.499H80.5609L97.1313 387.418Z" fill="#E6E6E6"/>
<path d="M126.188 387.418H111.634L103.479 464.499H118.034L126.188 387.418Z" fill="#E6E6E6"/>
<path d="M143.178 387.418H157.732L174.303 464.499H159.735L143.178 387.418Z" fill="#E6E6E6"/>
<path d="M327.781 529.394C467.939 529.394 581.559 522.204 581.559 513.334C581.559 504.464 467.939 497.274 327.781 497.274C187.624 497.274 74.0035 504.464 74.0035 513.334C74.0035 522.204 187.624 529.394 327.781 529.394Z" fill="#F5F5F5"/>
<path d="M412.295 345.267H300.609C298.491 345.267 296.774 347.128 296.774 349.424V354.191C296.774 356.487 298.491 358.348 300.609 358.348H412.295C414.413 358.348 416.13 356.487 416.13 354.191V349.424C416.13 347.128 414.413 345.267 412.295 345.267Z" fill="#263238"/>
<path d="M411.235 503.997H416.13L410.502 358.348H403.722L411.235 503.997Z" fill="#407BFF"/>
<path opacity="0.6" d="M411.235 503.997H416.13L410.502 358.348H403.722L411.235 503.997Z" fill="white"/>
<path d="M366.171 503.997H361.275L366.904 358.348H373.683L366.171 503.997Z" fill="#407BFF"/>
<path opacity="0.6" d="M366.171 503.997H361.275L366.904 358.348H373.683L366.171 503.997Z" fill="white"/>
<path d="M346.747 503.997H351.642L346.001 358.348H339.234L346.747 503.997Z" fill="#407BFF"/>
<path opacity="0.6" d="M346.747 503.997H351.642L346.001 358.348H339.234L346.747 503.997Z" fill="white"/>
<path d="M301.669 503.997H296.774L302.415 358.348H309.182L301.669 503.997Z" fill="#407BFF"/>
<path opacity="0.6" d="M301.669 503.997H296.774L302.415 358.348H309.182L301.669 503.997Z" fill="white"/>
<g opacity="0.3">
<path opacity="0.3" d="M410.502 358.334H403.722L404.036 364.534H410.738L410.502 358.334Z" fill="#407BFF"/>
<path opacity="0.3" d="M366.668 364.534H373.356L373.683 358.334H366.904L366.668 364.534Z" fill="#407BFF"/>
<path opacity="0.3" d="M339.234 358.334L339.548 364.534H346.249L346.001 358.334H339.234Z" fill="#407BFF"/>
<path opacity="0.3" d="M302.167 364.534H308.881L309.195 358.334H302.415L302.167 364.534Z" fill="#407BFF"/>
</g>
<path d="M343.592 482.588L332.519 488.973L315.059 463.421L326.145 457.037L343.592 482.588Z" fill="#FFB573"/>
<path d="M328.514 485.028L340.085 476.317C340.179 476.23 340.29 476.165 340.409 476.127C340.528 476.088 340.654 476.077 340.777 476.095C340.9 476.112 341.019 476.157 341.125 476.227C341.231 476.298 341.323 476.391 341.394 476.502L348.318 485.993C348.651 486.516 348.781 487.16 348.681 487.786C348.58 488.412 348.257 488.971 347.781 489.341C343.71 492.292 341.878 493.328 336.551 496.762C333.266 498.861 325.412 503.855 320.583 506.139C315.753 508.424 313.816 503.174 315.674 501.741C320.085 498.365 325.923 491.725 327.245 487.057C327.449 486.247 327.895 485.533 328.514 485.028Z" fill="#263238"/>
<path opacity="0.2" d="M326.158 457.051L315.059 463.421L323.475 475.736L334.313 468.982L326.158 457.051Z" fill="black"/>
<path d="M352.899 305.698C352.899 305.698 266.853 302.79 266.513 341.763C266.094 397.775 315.138 471.338 315.138 471.338L334.326 457.505C334.326 457.505 300.714 404.032 300.426 360.306C325.779 352.545 385.503 357.469 393.238 334.627C399.573 315.984 396.262 305.698 396.262 305.698H352.899Z" fill="#407BFF"/>
<path opacity="0.2" d="M352.899 305.698C352.899 305.698 266.853 302.79 266.513 341.763C266.094 397.775 315.138 471.338 315.138 471.338L334.326 457.505C334.326 457.505 300.714 404.032 300.426 360.306C325.779 352.545 385.503 357.469 393.238 334.627C399.573 315.984 396.262 305.698 396.262 305.698H352.899Z" fill="black"/>
<path d="M339.535 461.066L316.708 476.218L309.549 468.344L334.627 451.22L339.535 461.066Z" fill="#263238"/>
<path d="M326.119 489.725C327.033 489.008 327.867 488.18 328.606 487.256C328.645 487.211 328.671 487.154 328.68 487.093C328.689 487.032 328.681 486.969 328.657 486.913C328.633 486.856 328.594 486.809 328.546 486.777C328.497 486.744 328.44 486.728 328.383 486.731C327.899 486.731 323.606 486.731 322.69 488.249C322.585 488.419 322.521 488.614 322.505 488.818C322.489 489.021 322.521 489.226 322.598 489.412C322.685 489.707 322.842 489.971 323.053 490.178C323.265 490.384 323.523 490.527 323.802 490.59C324.647 490.621 325.471 490.312 326.119 489.725ZM327.703 487.384C326.119 489.171 324.718 490.122 323.907 489.966C323.725 489.922 323.558 489.825 323.424 489.685C323.29 489.545 323.194 489.367 323.148 489.171C323.099 489.086 323.073 488.988 323.073 488.887C323.073 488.787 323.099 488.689 323.148 488.604C323.671 487.809 325.988 487.455 327.703 487.384Z" fill="#407BFF"/>
<path d="M328.553 487.313C328.591 487.282 328.622 487.243 328.645 487.199C328.67 487.152 328.684 487.098 328.684 487.043C328.684 486.988 328.67 486.934 328.645 486.887C328.567 486.745 326.734 483.368 325.006 483.056C324.774 483.007 324.534 483.019 324.306 483.091C324.079 483.162 323.87 483.291 323.698 483.468C323.5 483.627 323.358 483.853 323.291 484.109C323.225 484.366 323.239 484.639 323.331 484.886C323.881 486.305 326.904 487.454 328.357 487.355L328.553 487.313ZM324.247 483.794C324.342 483.718 324.45 483.663 324.565 483.634C324.68 483.605 324.799 483.601 324.915 483.624C325.949 483.808 327.205 485.582 327.86 486.66C326.433 486.518 324.287 485.525 323.933 484.603C323.868 484.433 323.828 484.191 324.156 483.879C324.182 483.908 324.208 483.865 324.247 483.794Z" fill="#407BFF"/>
<path d="M323.109 498.251L310.674 497.613L308.632 465.79L321.067 466.429L323.109 498.251Z" fill="#FFB573"/>
<path d="M310.386 496.139L324.457 495.656C324.694 495.637 324.929 495.72 325.111 495.887C325.292 496.054 325.405 496.293 325.425 496.55L326.459 508.595C326.481 509.233 326.268 509.853 325.868 510.321C325.468 510.789 324.914 511.066 324.326 511.092C319.431 511.092 317.075 510.936 310.884 511.092C307.075 511.22 299.588 511.83 294.366 511.092C289.143 510.355 289.942 504.807 292.206 504.594C297.585 504.126 304.797 500.097 308.253 496.962C308.861 496.44 309.611 496.151 310.386 496.139Z" fill="#263238"/>
<path d="M309.274 497.244C309.317 497.257 309.362 497.257 309.405 497.244C309.447 497.219 309.483 497.182 309.508 497.137C309.534 497.093 309.548 497.041 309.549 496.989C309.549 496.818 309.732 492.903 308.423 491.626C308.252 491.448 308.043 491.319 307.815 491.249C307.586 491.18 307.346 491.173 307.114 491.229C306.864 491.244 306.625 491.35 306.438 491.53C306.25 491.71 306.124 491.954 306.08 492.222C305.831 493.64 307.782 496.478 309.051 497.244C309.124 497.27 309.202 497.27 309.274 497.244ZM307.402 491.796C307.518 491.789 307.633 491.807 307.741 491.851C307.85 491.895 307.948 491.964 308.03 492.051C308.816 492.818 308.973 495.045 308.986 496.308C307.86 495.343 306.551 493.243 306.722 492.264C306.722 492.08 306.839 491.853 307.258 491.782L307.402 491.796Z" fill="#407BFF"/>
<path opacity="0.2" d="M321.08 466.429L308.632 465.79L309.797 483.993L322.205 483.979L321.08 466.429Z" fill="black"/>
<path d="M383.5 305.698C383.5 305.698 293.476 314.92 296.748 344.303C301.486 386.666 303.816 477.977 303.816 477.977L326.76 478.956C326.76 478.956 336.485 396.669 331.459 353.212C354.757 353.212 411.798 355.028 416.994 339.819C421.588 326.37 419.952 305.769 419.952 305.769L383.5 305.698Z" fill="#407BFF"/>
<path d="M329.3 480.489L301.761 479.013L300.766 466.017L330.975 468.273L329.3 480.489Z" fill="#263238"/>
<path d="M363.527 219.637C363.357 222.02 363.186 224.092 362.938 226.277C362.689 228.462 362.427 230.533 362.113 232.746C361.498 237.002 360.713 241.259 359.796 245.614C358.012 254.614 355.111 263.31 351.171 271.464C349.995 273.755 348.642 275.933 347.126 277.976C345.432 280.282 343.429 282.3 341.184 283.963C336.865 287.073 331.869 288.902 326.695 289.269C322.164 289.591 317.615 289.112 313.227 287.85C311.155 287.276 309.119 286.565 307.127 285.722C306.132 285.311 305.164 284.857 304.208 284.304C303.253 283.75 302.363 283.296 301.263 282.658L304.706 273.166L307.206 273.507L309.824 273.791C311.577 273.947 313.305 274.046 315.059 274.046C318.239 274.104 321.412 273.708 324.496 272.868C326.967 272.226 329.255 270.935 331.158 269.109C331.974 268.281 332.703 267.358 333.331 266.356C334.104 265.066 334.795 263.72 335.399 262.327C336.783 259.072 337.917 255.698 338.789 252.24C339.784 248.65 340.582 244.891 341.302 241.06C342.022 237.229 342.611 233.356 343.2 229.455L343.972 223.581C344.208 221.652 344.469 219.58 344.64 217.906L363.527 219.637Z" fill="#FFB573"/>
<path d="M363.605 208.074C354.443 198.441 343.056 204.13 338.527 222.262C335.964 231.941 334.212 241.851 333.292 251.871L362.44 258.397C367.741 241.103 373.029 217.949 363.605 208.074Z" fill="#263238"/>
<path opacity="0.3" d="M354.221 227.795C356.302 225.766 362.218 234.889 365.83 246.139C364.809 250.395 363.644 254.496 362.453 258.34L344.914 254.411C346.315 243.174 349.548 232.363 354.221 227.795Z" fill="black"/>
<path d="M302.729 268.91L296.185 266.2L295.897 281.253C295.897 281.253 306.892 286.403 309.13 280.487L308.344 276.727C307.966 275.071 307.27 273.519 306.303 272.172C305.336 270.826 304.118 269.714 302.729 268.91Z" fill="#FFB573"/>
<path d="M288.463 266.598L284.602 279.224L295.949 281.253L296.237 266.2L288.463 266.598Z" fill="#FFB573"/>
<path d="M298.358 276.657C298.22 276.659 298.084 276.619 297.965 276.541C297.847 276.463 297.752 276.351 297.69 276.217L286.002 251.828C285.909 251.636 285.89 251.412 285.949 251.205C286.008 250.998 286.14 250.824 286.316 250.722C286.496 250.626 286.702 250.61 286.893 250.676C287.083 250.742 287.242 250.886 287.337 251.076L298.986 275.422C299.079 275.614 299.098 275.838 299.039 276.046C298.98 276.253 298.848 276.426 298.672 276.529C298.576 276.593 298.469 276.637 298.358 276.657Z" fill="#263238"/>
<path d="M362.519 198.413L376.498 194.156L394.455 193.248C397.183 193.107 399.878 193.941 402.124 195.623C404.371 197.304 406.046 199.74 406.89 202.555C410.306 213.905 413.434 230.249 415.751 244.394C418.369 260.27 419.677 284.119 419.952 305.769H352.899C351.367 260.582 346.066 233.867 343.736 219.084C343.272 216.186 343.696 213.204 344.944 210.593C346.192 207.982 348.196 205.886 350.647 204.627L362.519 198.413Z" fill="#263238"/>
<path opacity="0.3" d="M415.751 244.337C413.945 233.2 411.615 220.658 409.023 210.287C397.073 208.103 391.288 236.506 394.835 250.594C398.382 264.682 417.295 256.141 417.295 256.141C416.85 251.899 416.327 247.913 415.751 244.337Z" fill="black"/>
<path d="M374.116 164.575C376.995 172.236 375.267 186.282 369.587 182.31C363.906 178.337 372.362 159.922 374.116 164.575Z" fill="#263238"/>
<path d="M370.974 169.484L365.542 178.479L358.16 190.723C359.114 191.77 359.886 192.996 360.438 194.341C361.747 197.292 362.912 199.491 357.192 203.718C356.577 204.146 356.089 204.755 355.785 205.474C355.481 206.194 355.374 206.993 355.477 207.776C355.817 209.691 357.571 211.55 363.736 210.372C369.677 209.139 375.099 205.878 379.207 201.065C381.262 198.838 380.791 197.164 378.814 194.851C373.16 188.325 371.485 177.897 370.974 169.484Z" fill="#FFB573"/>
<path opacity="0.2" d="M359.927 187.701L364.456 178.975C364.552 179.202 364.657 179.444 364.77 179.699C365.172 180.777 365.496 181.887 365.739 183.019C366.563 186.892 363.788 192.425 360.739 195.064L360.385 194.312C359.836 193.056 359.131 191.887 358.291 190.836C358.238 190.778 358.176 190.731 358.108 190.694L359.927 187.701Z" fill="black"/>
<path d="M332.742 158.9C331.053 163.029 337.035 174.719 343.88 169.995C350.726 165.27 335.726 151.594 332.742 158.9Z" fill="#263238"/>
<path d="M365.739 212.884C365.648 212.885 365.561 212.852 365.491 212.789C365.421 212.727 365.375 212.64 365.359 212.543C364.862 209.039 362.741 206.868 360.346 204.229C357.31 201.009 353.867 197.348 352.742 190.184C352.724 190.078 352.746 189.97 352.803 189.882C352.859 189.794 352.945 189.734 353.043 189.716C353.14 189.697 353.24 189.72 353.321 189.782C353.402 189.843 353.457 189.936 353.475 190.042C354.574 196.951 357.925 200.512 360.87 203.648C363.291 206.216 365.569 208.642 366.105 212.416C366.115 212.469 366.114 212.524 366.103 212.577C366.092 212.629 366.071 212.679 366.042 212.723C366.012 212.767 365.975 212.804 365.932 212.832C365.889 212.859 365.841 212.877 365.791 212.884H365.739Z" fill="white"/>
<path d="M368.527 154.743C371.144 167.597 373.186 174.989 368.958 183.118C362.571 195.419 346.603 193.745 340.53 181.912C335.059 171.272 331.799 152.033 341.969 143.734C344.245 141.9 346.91 140.718 349.719 140.299C352.528 139.879 355.389 140.234 358.038 141.332C360.686 142.43 363.036 144.235 364.869 146.579C366.703 148.924 367.961 151.732 368.527 154.743Z" fill="#FFB573"/>
<path d="M372.047 163.568C367.964 169.853 357.257 158.319 358.134 150.572C347.506 157.127 335.962 165.88 328.959 158.503C320.87 149.99 323.082 137.789 332.559 136.697C330.883 140.244 340.412 141.818 345.477 136.342C354.05 127.149 367.597 129.064 367.349 136.512C373.88 133.703 381.013 149.763 372.047 163.568Z" fill="#263238"/>
<path d="M366.092 138.598C368.618 136.555 366.943 129.277 361.079 127.149C366.655 127.929 372.427 132.426 366.092 138.598Z" fill="#263238"/>
<path d="M375.83 163C375.943 165.939 375.058 168.821 373.343 171.101C371.092 174.01 367.623 171.697 366.799 168.065C366.079 164.816 367.008 159.78 369.966 158.219C372.924 156.659 375.673 159.34 375.83 163Z" fill="#FFB573"/>
<path d="M351.511 165.171C351.825 166.207 351.59 167.257 350.961 167.498C350.333 167.739 349.653 167.101 349.273 166.079C348.893 165.058 349.195 163.994 349.823 163.738C350.451 163.483 351.197 164.121 351.511 165.171Z" fill="#263238"/>
<path d="M340.778 169.427C341.106 170.477 340.857 171.527 340.229 171.768C339.6 172.009 338.854 171.371 338.54 170.349C338.226 169.328 338.475 168.264 339.09 168.023C339.705 167.781 340.464 168.392 340.778 169.427Z" fill="#263238"/>
<path d="M344.456 168.831C344.499 171.935 344.165 175.031 343.462 178.039C345.386 178.805 347.506 177.003 347.506 177.003L344.456 168.831Z" fill="#ED893E"/>
<path d="M350.202 182.778C351.317 182.381 352.346 181.742 353.225 180.901C354.105 180.059 354.818 179.033 355.32 177.883C355.351 177.804 355.352 177.715 355.322 177.635C355.293 177.556 355.236 177.492 355.163 177.458C355.088 177.429 355.006 177.432 354.933 177.466C354.86 177.5 354.802 177.563 354.77 177.642C354.208 178.881 353.39 179.963 352.38 180.805C351.37 181.646 350.195 182.224 348.946 182.494C348.905 182.5 348.865 182.515 348.83 182.538C348.795 182.561 348.764 182.591 348.74 182.627C348.716 182.664 348.699 182.705 348.69 182.749C348.681 182.793 348.681 182.838 348.689 182.882C348.697 182.926 348.714 182.967 348.737 183.004C348.761 183.041 348.791 183.072 348.826 183.095C348.861 183.119 348.9 183.134 348.941 183.141C348.982 183.147 349.024 183.144 349.064 183.133C349.45 183.042 349.83 182.923 350.202 182.778Z" fill="#263238"/>
<path d="M352.493 160.659C352.584 160.613 352.661 160.539 352.715 160.447C352.799 160.301 352.827 160.126 352.793 159.959C352.758 159.792 352.665 159.646 352.532 159.553C351.758 158.986 350.867 158.636 349.938 158.532C349.008 158.428 348.07 158.574 347.205 158.957C347.133 158.992 347.068 159.042 347.014 159.105C346.96 159.168 346.918 159.242 346.891 159.323C346.864 159.404 346.853 159.49 346.857 159.576C346.862 159.661 346.882 159.745 346.917 159.822C346.988 159.976 347.111 160.093 347.26 160.148C347.409 160.204 347.573 160.194 347.716 160.12C348.398 159.835 349.134 159.732 349.861 159.821C350.588 159.91 351.284 160.188 351.891 160.631C351.978 160.697 352.081 160.735 352.188 160.74C352.295 160.745 352.4 160.717 352.493 160.659Z" fill="#263238"/>
<path d="M338.658 162.702C338.683 162.595 338.683 162.483 338.658 162.376C338.595 162.219 338.477 162.095 338.33 162.031C338.183 161.967 338.019 161.969 337.873 162.036C337.001 162.402 336.227 162.996 335.619 163.767C335.012 164.537 334.59 165.458 334.391 166.448C334.365 166.615 334.401 166.787 334.492 166.925C334.583 167.064 334.721 167.157 334.875 167.186C335.03 167.214 335.188 167.174 335.316 167.076C335.444 166.978 335.53 166.828 335.556 166.661C335.726 165.887 336.068 165.17 336.552 164.572C337.035 163.974 337.646 163.512 338.331 163.227C338.422 163.177 338.5 163.103 338.557 163.011C338.614 162.919 338.649 162.813 338.658 162.702Z" fill="#263238"/>
<path d="M404.573 202.881C405.882 205.18 406.929 207.251 408.015 209.464C409.102 211.678 410.149 213.834 411.17 216.047C413.238 220.46 415.096 225 416.903 229.625C418.709 234.25 420.293 239.017 421.654 243.983C423.143 249.195 424.143 254.556 424.638 259.986C424.902 263.156 424.801 266.349 424.337 269.492C424.038 271.565 423.456 273.578 422.609 275.465C421.629 277.597 420.267 279.497 418.604 281.055C417.107 282.465 415.398 283.588 413.552 284.375C412.003 285.034 410.392 285.51 408.748 285.793C405.973 286.264 403.153 286.345 400.358 286.034C397.863 285.805 395.387 285.373 392.95 284.743C390.624 284.169 388.326 283.469 386.066 282.644C381.623 281.049 377.307 279.066 373.16 276.713L376.471 267.165C384.613 268.839 393.356 270.386 400.699 269.903C402.304 269.812 403.895 269.517 405.437 269.024C406.746 268.598 407.413 267.96 407.361 267.761C407.309 267.562 407.282 267.761 407.256 267.619C407.23 267.477 407.256 267.463 407.256 266.739C407.337 265.145 407.25 263.545 406.994 261.972C406.368 257.923 405.391 253.947 404.076 250.097C402.767 245.983 401.183 241.826 399.468 237.712C397.754 233.597 395.908 229.469 394.037 225.354C393.094 223.293 392.121 221.254 391.118 219.24L388.16 213.295L404.573 202.881Z" fill="#FFB573"/>
<path d="M398.461 193.39C385.817 191.305 379.6 203.066 385.555 220.63C388.63 230.131 392.494 239.31 397.099 248.055L424.363 235.101C419.403 217.722 411.392 195.532 398.461 193.39Z" fill="#263238"/>
<path d="M369.456 265.86L363.618 267.761L371.903 280.53C371.903 280.53 384.181 275.763 381.668 269.974L378.579 268.073C375.935 266.413 372.584 264.696 369.456 265.86Z" fill="#FFB573"/>
<path d="M358.448 276.557L364.299 282.885L371.904 280.516L363.618 267.761L358.448 276.557Z" fill="#FFB573"/>
<path d="M371.21 167.058C372.251 167.058 373.095 165.953 373.095 164.589C373.095 163.226 372.251 162.121 371.21 162.121C370.169 162.121 369.325 163.226 369.325 164.589C369.325 165.953 370.169 167.058 371.21 167.058Z" fill="white"/>
<path d="M372.767 171.116L371.681 171.073L371.013 165.384L373.081 164.887L372.767 171.116Z" fill="white"/>
<path d="M380.28 278.359C376.354 278.359 372.872 277.72 370.765 275.649C369.979 274.829 369.367 273.833 368.971 272.73C368.576 271.628 368.406 270.445 368.474 269.265C368.594 263.414 369.435 257.607 370.974 251.999C372.794 244.266 374.233 238.166 369.862 230.632C362.898 218.672 364.98 201.945 369.862 191.46C373.592 183.444 372.283 174.506 371.812 171.215C371.746 170.789 371.694 170.449 371.668 170.222C371.662 170.168 371.667 170.114 371.681 170.063C371.696 170.012 371.72 169.964 371.751 169.923C371.783 169.882 371.822 169.848 371.866 169.824C371.911 169.8 371.959 169.785 372.008 169.782C372.107 169.77 372.206 169.8 372.284 169.867C372.363 169.933 372.414 170.03 372.427 170.137C372.427 170.349 372.492 170.676 372.545 171.087C373.042 174.506 374.338 183.572 370.49 191.829C365.713 202.115 363.671 218.502 370.49 230.136C375.032 237.953 373.487 244.522 371.694 252.126C370.186 257.659 369.363 263.384 369.246 269.151C369.176 270.218 369.321 271.289 369.671 272.288C370.021 273.288 370.569 274.193 371.275 274.94C374.809 278.387 382.61 277.508 390.149 276.656C393.526 276.288 397.021 275.89 400.097 275.89C400.197 275.89 400.294 275.934 400.365 276.011C400.436 276.088 400.476 276.193 400.476 276.302C400.476 276.411 400.436 276.515 400.365 276.593C400.294 276.67 400.197 276.713 400.097 276.713C397.06 276.713 393.552 277.096 390.228 277.479C386.928 277.954 383.608 278.247 380.28 278.359Z" fill="white"/>
<path d="M415.764 275.323H400.869C400.435 275.323 400.084 275.704 400.084 276.174V277.309C400.084 277.779 400.435 278.16 400.869 278.16H415.764C416.198 278.16 416.549 277.779 416.549 277.309V276.174C416.549 275.704 416.198 275.323 415.764 275.323Z" fill="white"/>
<path d="M509.244 287.609H146.319C145.164 287.605 144.057 287.106 143.241 286.221C142.424 285.336 141.964 284.136 141.96 282.885C141.964 281.633 142.424 280.433 143.241 279.548C144.057 278.663 145.164 278.164 146.319 278.16H509.244C510.399 278.164 511.505 278.663 512.322 279.548C513.138 280.433 513.599 281.633 513.602 282.885C513.599 284.136 513.138 285.336 512.322 286.221C511.505 287.106 510.399 287.605 509.244 287.609Z" fill="#407BFF"/>
<path opacity="0.3" d="M509.244 287.609H424.285C423.13 287.605 422.023 287.106 421.206 286.221C420.39 285.336 419.929 284.136 419.926 282.885C419.929 281.633 420.39 280.433 421.206 279.548C422.023 278.663 423.13 278.164 424.285 278.16H509.244C510.399 278.164 511.505 278.663 512.322 279.548C513.138 280.433 513.599 281.633 513.602 282.885C513.599 284.136 513.138 285.336 512.322 286.221C511.505 287.106 510.399 287.605 509.244 287.609Z" fill="#263238"/>
<path d="M505.239 510.211H513.602L503.982 287.609H492.412L505.239 510.211Z" fill="#263238"/>
<path opacity="0.1" d="M505.239 510.211H513.602L503.982 287.609H492.412L505.239 510.211Z" fill="white"/>
<path d="M428.29 510.211H419.926L429.546 287.609H441.117L428.29 510.211Z" fill="#263238"/>
<path opacity="0.2" d="M428.29 510.211H419.926L429.546 287.609H441.117L428.29 510.211Z" fill="white"/>
<path d="M227.286 510.211H235.636L226.016 287.609H214.446L227.286 510.211Z" fill="#263238"/>
<path opacity="0.1" d="M227.286 510.211H235.636L226.016 287.609H214.446L227.286 510.211Z" fill="white"/>
<path d="M150.324 510.211H141.96L151.58 287.609H163.151L150.324 510.211Z" fill="#263238"/>
<path opacity="0.2" d="M150.324 510.211H141.96L151.58 287.609H163.151L150.324 510.211Z" fill="white"/>
<path d="M433.133 299.456H154.015V318.112H433.133V299.456Z" fill="#263238"/>
<path opacity="0.2" d="M433.133 299.456H154.015V318.112H433.133V299.456Z" fill="white"/>
<path d="M199.944 265.619C199.46 265.619 198.996 265.826 198.652 266.195C198.309 266.565 198.115 267.066 198.111 267.591V276.103C198.111 276.63 198.304 277.135 198.648 277.508C198.991 277.88 199.458 278.089 199.944 278.089H259.301C259.458 278.089 259.61 278.023 259.722 277.903C259.835 277.784 259.9 277.622 259.903 277.451V266.186C259.9 266.015 259.835 265.853 259.722 265.734C259.61 265.614 259.458 265.548 259.301 265.548L199.944 265.619Z" fill="#407BFF"/>
<path opacity="0.9" d="M235.074 266.81H259.942V276.969H235.074C234.792 276.969 234.523 276.848 234.324 276.632C234.125 276.417 234.013 276.124 234.013 275.82V267.945C234.017 267.643 234.13 267.354 234.329 267.142C234.527 266.93 234.795 266.81 235.074 266.81Z" fill="white"/>
<path d="M230.99 265.619H171.03C170.018 265.619 169.198 266.508 169.198 267.605V276.188C169.198 277.285 170.018 278.174 171.03 278.174H230.99C232.002 278.174 232.822 277.285 232.822 276.188V267.605C232.822 266.508 232.002 265.619 230.99 265.619Z" fill="#407BFF"/>
<path opacity="0.2" d="M230.99 265.619H171.03C170.018 265.619 169.198 266.508 169.198 267.605V276.188C169.198 277.285 170.018 278.174 171.03 278.174H230.99C232.002 278.174 232.822 277.285 232.822 276.188V267.605C232.822 266.508 232.002 265.619 230.99 265.619Z" fill="black"/>
<path opacity="0.5" d="M201.501 265.619H192.404C191.992 265.619 191.658 265.981 191.658 266.427V277.366C191.658 277.812 191.992 278.174 192.404 278.174H201.501C201.913 278.174 202.247 277.812 202.247 277.366V266.427C202.247 265.981 201.913 265.619 201.501 265.619Z" fill="#407BFF"/>
<path opacity="0.5" d="M214.629 265.619H205.545C205.133 265.619 204.799 265.981 204.799 266.427V277.366C204.799 277.812 205.133 278.174 205.545 278.174H214.629C215.041 278.174 215.375 277.812 215.375 277.366V266.427C215.375 265.981 215.041 265.619 214.629 265.619Z" fill="#407BFF"/>
<path d="M189.211 250.154C188.97 250.154 188.732 250.205 188.509 250.305C188.287 250.405 188.085 250.551 187.915 250.736C187.745 250.92 187.61 251.139 187.518 251.38C187.426 251.621 187.378 251.879 187.378 252.14V263.632C187.378 263.893 187.426 264.151 187.518 264.392C187.61 264.633 187.745 264.852 187.915 265.037C188.085 265.221 188.287 265.367 188.509 265.467C188.732 265.567 188.97 265.618 189.211 265.618H253.516C253.673 265.615 253.823 265.544 253.933 265.422C254.043 265.3 254.105 265.136 254.105 264.966V250.778C254.105 250.608 254.043 250.444 253.933 250.322C253.823 250.2 253.673 250.129 253.516 250.126L189.211 250.154Z" fill="#407BFF"/>
<path opacity="0.9" d="M224.38 251.36H254.144V264.427H224.38C224.099 264.427 223.829 264.306 223.63 264.09C223.432 263.875 223.32 263.582 223.32 263.278V252.538C223.316 252.384 223.341 252.232 223.393 252.089C223.445 251.946 223.522 251.816 223.621 251.707C223.72 251.597 223.838 251.51 223.968 251.45C224.099 251.391 224.239 251.36 224.38 251.36Z" fill="white"/>
<path d="M220.244 250.154H169.826C168.814 250.154 167.994 251.043 167.994 252.14V263.618C167.994 264.715 168.814 265.604 169.826 265.604H220.244C221.256 265.604 222.077 264.715 222.077 263.618V252.14C222.077 251.043 221.256 250.154 220.244 250.154Z" fill="#407BFF"/>
<path opacity="0.2" d="M220.244 250.154H169.826C168.814 250.154 167.994 251.043 167.994 252.14V263.618C167.994 264.715 168.814 265.604 169.826 265.604H220.244C221.256 265.604 222.077 264.715 222.077 263.618V252.14C222.077 251.043 221.256 250.154 220.244 250.154Z" fill="white"/>
<path opacity="0.6" d="M215.519 253.219H178.596C177.981 253.219 177.483 253.759 177.483 254.425V261.334C177.483 262 177.981 262.54 178.596 262.54H215.519C216.133 262.54 216.632 262 216.632 261.334V254.425C216.632 253.759 216.133 253.219 215.519 253.219Z" fill="#407BFF"/>
<path d="M208.072 242.763C207.064 242.763 206.239 243.287 206.239 243.926V248.991C206.239 249.629 207.064 250.154 208.072 250.154H267.442C267.769 250.154 268.031 249.984 268.031 249.785V243.146C268.031 242.933 267.769 242.763 267.442 242.763H208.072Z" fill="#407BFF"/>
<path opacity="0.9" d="M242.966 243.458H268.031V249.445H242.966C242.751 249.445 242.545 249.352 242.392 249.187C242.24 249.022 242.155 248.798 242.155 248.565V244.309C242.162 244.081 242.25 243.864 242.401 243.705C242.553 243.546 242.755 243.458 242.966 243.458Z" fill="white"/>
<path d="M239.55 242.763H178.727C177.953 242.763 177.326 243.442 177.326 244.281V248.65C177.326 249.489 177.953 250.168 178.727 250.168H239.55C240.323 250.168 240.95 249.489 240.95 248.65V244.281C240.95 243.442 240.323 242.763 239.55 242.763Z" fill="#407BFF"/>
<path opacity="0.2" d="M239.55 242.763H178.727C177.953 242.763 177.326 243.442 177.326 244.281V248.65C177.326 249.489 177.953 250.168 178.727 250.168H239.55C240.323 250.168 240.95 249.489 240.95 248.65V244.281C240.95 243.442 240.323 242.763 239.55 242.763Z" fill="black"/>
<path opacity="0.5" d="M186.37 242.763H184.473C184.321 242.763 184.198 242.896 184.198 243.061V249.871C184.198 250.035 184.321 250.168 184.473 250.168H186.37C186.522 250.168 186.645 250.035 186.645 249.871V243.061C186.645 242.896 186.522 242.763 186.37 242.763Z" fill="#407BFF"/>
<path opacity="0.5" d="M235.741 242.763H233.883C233.731 242.763 233.608 242.896 233.608 243.061V249.871C233.608 250.035 233.731 250.168 233.883 250.168H235.741C235.893 250.168 236.016 250.035 236.016 249.871V243.061C236.016 242.896 235.893 242.763 235.741 242.763Z" fill="#407BFF"/>
<path d="M197.339 232.065C196.331 232.065 195.506 232.59 195.506 233.228V241.585C195.506 242.237 196.331 242.762 197.339 242.762H261.644C261.971 242.762 262.246 242.592 262.246 242.379V232.448C262.246 232.235 261.971 232.065 261.644 232.065H197.339Z" fill="#407BFF"/>
<path opacity="0.9" d="M232.233 232.76H262.246V242.053H232.233C232.018 242.053 231.812 241.961 231.659 241.796C231.507 241.631 231.422 241.407 231.422 241.174V233.64C231.422 233.407 231.507 233.183 231.659 233.018C231.812 232.853 232.018 232.76 232.233 232.76Z" fill="white"/>
<path d="M228.804 232.065H177.522C176.749 232.065 176.122 232.745 176.122 233.583V241.244C176.122 242.083 176.749 242.762 177.522 242.762H228.804C229.578 242.762 230.205 242.083 230.205 241.244V233.583C230.205 232.745 229.578 232.065 228.804 232.065Z" fill="#407BFF"/>
<path opacity="0.1" d="M228.804 232.065H177.522C176.749 232.065 176.122 232.745 176.122 233.583V241.244C176.122 242.083 176.749 242.762 177.522 242.762H228.804C229.578 242.762 230.205 242.083 230.205 241.244V233.583C230.205 232.745 229.578 232.065 228.804 232.065Z" fill="black"/>
<path d="M340.765 275.805H286.748C286.459 275.805 286.181 275.929 285.975 276.149C285.769 276.37 285.652 276.669 285.649 276.983C285.652 277.296 285.769 277.596 285.975 277.816C286.181 278.037 286.459 278.16 286.748 278.16H340.765C341.053 278.16 341.33 278.036 341.534 277.815C341.737 277.595 341.852 277.295 341.852 276.983C341.852 276.67 341.737 276.371 341.534 276.15C341.33 275.929 341.053 275.805 340.765 275.805Z" fill="white"/>
<path d="M446.444 272.996H481.941L485.147 278.033H443.237L446.444 272.996Z" fill="#263238"/>
<path d="M501.259 187.034C501.259 188.058 500.979 189.059 500.454 189.911C499.929 190.763 499.183 191.426 498.31 191.818C497.437 192.21 496.477 192.313 495.55 192.113C494.623 191.913 493.772 191.42 493.104 190.696C492.436 189.971 491.981 189.049 491.796 188.044C491.612 187.04 491.707 185.998 492.068 185.052C492.43 184.106 493.042 183.297 493.828 182.728C494.614 182.159 495.537 181.855 496.482 181.855C497.11 181.854 497.732 181.986 498.312 182.246C498.893 182.505 499.42 182.887 499.864 183.368C500.308 183.849 500.66 184.421 500.899 185.05C501.139 185.679 501.261 186.353 501.259 187.034Z" fill="black"/>
<path d="M465.37 276.401C465.121 276.4 464.876 276.333 464.657 276.206C464.438 276.078 464.251 275.894 464.112 275.67C463.974 275.446 463.889 275.188 463.864 274.92C463.839 274.652 463.875 274.381 463.97 274.131L498.17 186.396C498.347 186.029 498.644 185.748 499.003 185.608C499.362 185.469 499.756 185.48 500.107 185.641C500.459 185.802 500.741 186.1 500.899 186.477C501.057 186.853 501.078 187.28 500.958 187.672L466.757 275.394C466.642 275.69 466.45 275.944 466.203 276.123C465.956 276.302 465.667 276.399 465.37 276.401Z" fill="#263238"/>
<path d="M499.558 188.694C499.233 188.69 498.917 188.576 498.655 188.368L436.549 137.874C436.229 137.615 436.018 137.228 435.962 136.8C435.905 136.371 436.008 135.936 436.248 135.59C436.487 135.244 436.844 135.015 437.239 134.954C437.634 134.893 438.036 135.004 438.355 135.264L500.474 185.729C500.725 185.938 500.91 186.226 501.002 186.554C501.094 186.883 501.089 187.234 500.988 187.559C500.888 187.884 500.695 188.167 500.439 188.368C500.182 188.569 499.874 188.678 499.558 188.68V188.694Z" fill="#263238"/>
<path d="M504.335 187.034C504.335 188.058 504.055 189.059 503.53 189.911C503.005 190.763 502.259 191.426 501.386 191.818C500.513 192.21 499.553 192.313 498.626 192.113C497.699 191.913 496.848 191.42 496.18 190.696C495.512 189.971 495.057 189.049 494.872 188.044C494.688 187.04 494.783 185.998 495.144 185.052C495.506 184.106 496.118 183.297 496.904 182.728C497.689 182.159 498.613 181.855 499.558 181.855C500.186 181.854 500.808 181.986 501.388 182.246C501.969 182.505 502.496 182.887 502.94 183.368C503.384 183.849 503.736 184.421 503.975 185.05C504.215 185.679 504.337 186.353 504.335 187.034Z" fill="#263238"/>
<path d="M437.452 141.733C440.083 141.733 442.216 139.421 442.216 136.569C442.216 133.717 440.083 131.405 437.452 131.405C434.821 131.405 432.688 133.717 432.688 136.569C432.688 139.421 434.821 141.733 437.452 141.733Z" fill="#263238"/>
<path d="M430.777 160.177C429.283 161.796 427.38 162.899 425.308 163.345C423.236 163.792 421.089 163.563 419.137 162.687C417.186 161.81 415.518 160.327 414.344 158.423C413.17 156.519 412.544 154.281 412.544 151.991C412.544 149.701 413.17 147.463 414.344 145.559C415.518 143.655 417.186 142.171 419.137 141.295C421.089 140.419 423.236 140.19 425.308 140.636C427.38 141.083 429.283 142.186 430.777 143.805C432.776 145.978 433.9 148.922 433.9 151.991C433.9 155.06 432.776 158.004 430.777 160.177Z" fill="#407BFF"/>
<path opacity="0.7" d="M430.777 160.177C429.283 161.796 427.38 162.899 425.308 163.345C423.236 163.792 421.089 163.563 419.137 162.687C417.186 161.81 415.518 160.327 414.344 158.423C413.17 156.519 412.544 154.281 412.544 151.991C412.544 149.701 413.17 147.463 414.344 145.559C415.518 143.655 417.186 142.171 419.137 141.295C421.089 140.419 423.236 140.19 425.308 140.636C427.38 141.083 429.283 142.186 430.777 143.805C432.776 145.978 433.9 148.922 433.9 151.991C433.9 155.06 432.776 158.004 430.777 160.177Z" fill="white"/>
<path d="M437.452 136.569C435.328 134.265 432.806 132.436 430.031 131.189C427.255 129.942 424.279 129.3 421.274 129.3C418.269 129.3 415.294 129.942 412.518 131.189C409.742 132.436 407.22 134.265 405.097 136.569L437.452 171.669C439.58 169.366 441.269 166.63 442.421 163.619C443.573 160.607 444.166 157.379 444.166 154.119C444.166 150.859 443.573 147.631 442.421 144.619C441.269 141.608 439.58 138.872 437.452 136.569Z" fill="#263238"/>
<g opacity="0.2">
<path opacity="0.2" d="M405.083 136.569L269.196 278.16H408.604L437.452 171.655L405.083 136.569Z" fill="#407BFF"/>
<path opacity="0.7" d="M405.083 136.569L269.196 278.16H408.604L437.452 171.655L405.083 136.569Z" fill="white"/>
</g>
</svg>
