<svg width="508" height="494" viewBox="0 0 508 494" fill="none" xmlns="http://www.w3.org/2000/svg">
<path d="M65.0181 428.577H3.22609V428.915H65.0181V428.577Z" fill="#EBEBEB"/>
<path d="M455.495 426.301H430.377V426.639H455.495V426.301Z" fill="#EBEBEB"/>
<path d="M368.088 435.283H349.659V435.621H368.088V435.283Z" fill="#EBEBEB"/>
<path d="M337.997 435.283H291.611V435.621H337.997V435.283Z" fill="#EBEBEB"/>
<path d="M264.674 429.566H190.081V429.904H264.674V429.566Z" fill="#EBEBEB"/>
<path d="M445.508 15.0671H312.265V417.075H445.508V15.0671Z" fill="#EBEBEB"/>
<path d="M436.516 408.946V23.1959L321.257 23.1959V408.946H436.516Z" fill="#FAFAFA"/>
<path d="M308.273 15.0671H175.029V417.075H308.273V15.0671Z" fill="#EBEBEB"/>
<path d="M308.272 415.503H312.265L312.265 16.6522H308.272L308.272 415.503Z" fill="#E0E0E0"/>
<path d="M299.281 408.933V23.1824L184.021 23.1824L184.021 408.933H299.281Z" fill="#FAFAFA"/>
<path d="M499.289 12H113.711C113.259 11.9961 112.825 11.7841 112.505 11.4099C112.185 11.0356 112.003 10.5292 112 10V10C112.003 9.47078 112.185 8.96436 112.505 8.59014C112.825 8.21591 113.259 8.00393 113.711 8H499.289C499.741 8.00393 500.175 8.21591 500.495 8.59014C500.815 8.96436 500.997 9.47078 501 10V10C500.997 10.5292 500.815 11.0356 500.495 11.4099C500.175 11.7841 499.741 11.9961 499.289 12V12Z" fill="#E0E0E0"/>
<path d="M436.516 30.8776V23.1959L321.257 23.1959V30.8776L436.516 30.8776Z" fill="#E0E0E0"/>
<path d="M436.516 36.1342V23.1824L321.257 23.1824V36.1342L436.516 36.1342Z" fill="#E0E0E0"/>
<path d="M299.281 51.484V23.1824L184.021 23.1824V51.484L299.281 51.484Z" fill="#E0E0E0"/>
<g opacity="0.8">
<path opacity="0.8" d="M462.615 0.0152588H425.705V412.13H462.615V0.0152588Z" fill="#F5F5F5"/>
<path opacity="0.8" d="M452.877 0.0153809H435.456V412.13H452.877V0.0153809Z" fill="#F0F0F0"/>
<path opacity="0.8" d="M482.418 0.0153809H445.508V412.13H482.418V0.0153809Z" fill="#F5F5F5"/>
<path opacity="0.8" d="M472.68 81.0901H455.259V493.204H472.68V81.0901Z" fill="#F0F0F0"/>
<path opacity="0.8" d="M500.873 81.0901H463.963V493.204H500.873V81.0901Z" fill="#F5F5F5"/>
</g>
<g opacity="0.8">
<path opacity="0.8" d="M172.071 0.0152588H118.499V412.13H172.071V0.0152588Z" fill="#F5F5F5"/>
<path opacity="0.8" d="M157.922 0.0153809H132.635V412.13H157.922V0.0153809Z" fill="#F0F0F0"/>
<path opacity="0.8" d="M200.801 0.0153809H147.229V412.13H200.801V0.0153809Z" fill="#F5F5F5"/>
<path opacity="0.8" d="M186.652 0.0153809H161.364V412.13H186.652V0.0153809Z" fill="#F0F0F0"/>
<path opacity="0.8" d="M227.58 0.0153809H174.008V412.13H227.58V0.0153809Z" fill="#F5F5F5"/>
</g>
<path d="M93.0673 42.2441H6.64229V243.661H93.0673V42.2441Z" fill="#F0F0F0"/>
<path d="M93.0673 243.675H95.7898L95.7898 42.2576H93.0673L93.0673 243.675Z" fill="#E6E6E6"/>
<path d="M85.214 235.533L85.214 50.373L14.4955 50.373L14.4955 235.533H85.214Z" fill="#FAFAFA"/>
<path d="M98.5122 343.469H9.79666C7.84561 343.465 5.97527 342.662 4.59444 341.236C3.21361 339.809 2.4346 337.874 2.42769 335.855V335.855C2.4346 333.835 3.21361 331.901 4.59444 330.474C5.97527 329.047 7.84561 328.244 9.79666 328.241H98.5122C100.461 328.248 102.328 329.052 103.706 330.479C105.084 331.905 105.861 333.838 105.868 335.855V335.855C105.861 337.872 105.084 339.804 103.706 341.231C102.328 342.657 100.461 343.462 98.5122 343.469Z" fill="#F5F5F5"/>
<path d="M31.1313 343.469H16.5636L0.00630188 417.075H14.561L31.1313 343.469Z" fill="#E6E6E6"/>
<path d="M60.1884 343.469H45.6337L37.4794 417.075H52.0341L60.1884 343.469Z" fill="#E6E6E6"/>
<path d="M77.1776 343.469H91.7323L108.303 417.075H93.7349L77.1776 343.469Z" fill="#E6E6E6"/>
<path d="M253.781 478.093C393.939 478.093 507.559 471.04 507.559 462.339C507.559 453.638 393.939 446.585 253.781 446.585C113.624 446.585 0.00354004 453.638 0.00354004 462.339C0.00354004 471.04 113.624 478.093 253.781 478.093Z" fill="#F5F5F5"/>
<path d="M346.295 297.48H234.609C232.491 297.48 230.774 299.306 230.774 301.558V306.234C230.774 308.486 232.491 310.311 234.609 310.311H346.295C348.413 310.311 350.13 308.486 350.13 306.234V301.558C350.13 299.306 348.413 297.48 346.295 297.48Z" fill="#263238"/>
<path d="M345.235 453.18H350.131L344.502 310.311H337.722L345.235 453.18Z" fill="#407BFF"/>
<path opacity="0.6" d="M345.235 453.18H350.131L344.502 310.311H337.722L345.235 453.18Z" fill="white"/>
<path d="M300.171 453.18H295.275L300.904 310.311H307.684L300.171 453.18Z" fill="#407BFF"/>
<path opacity="0.6" d="M300.171 453.18H295.275L300.904 310.311H307.684L300.171 453.18Z" fill="white"/>
<path d="M280.747 453.18H285.642L280.001 310.311H273.234L280.747 453.18Z" fill="#407BFF"/>
<path opacity="0.6" d="M280.747 453.18H285.642L280.001 310.311H273.234L280.747 453.18Z" fill="white"/>
<path d="M235.669 453.18H230.774L236.415 310.311H243.182L235.669 453.18Z" fill="#407BFF"/>
<path opacity="0.6" d="M235.669 453.18H230.774L236.415 310.311H243.182L235.669 453.18Z" fill="white"/>
<g opacity="0.3">
<path opacity="0.3" d="M344.502 310.297H337.722L338.036 316.379H344.738L344.502 310.297Z" fill="#407BFF"/>
<path opacity="0.3" d="M300.668 316.379H307.356L307.683 310.297H300.904L300.668 316.379Z" fill="#407BFF"/>
<path opacity="0.3" d="M273.234 310.297L273.548 316.379H280.249L280.001 310.297H273.234Z" fill="#407BFF"/>
<path opacity="0.3" d="M236.167 316.379H242.881L243.195 310.297H236.415L236.167 316.379Z" fill="#407BFF"/>
</g>
<path d="M277.593 432.18L266.519 438.443L249.059 413.379L260.145 407.116L277.593 432.18Z" fill="#FFB573"/>
<path d="M262.514 434.574L274.085 426.029C274.179 425.943 274.29 425.879 274.409 425.842C274.528 425.804 274.654 425.793 274.777 425.811C274.9 425.828 275.019 425.872 275.125 425.941C275.231 426.009 275.323 426.101 275.394 426.21L282.318 435.52C282.651 436.033 282.781 436.665 282.681 437.279C282.58 437.893 282.257 438.441 281.781 438.804C277.71 441.699 275.878 442.715 270.551 446.083C267.266 448.143 259.412 453.041 254.583 455.282C249.753 457.522 247.816 452.373 249.674 450.968C254.085 447.655 259.923 441.142 261.245 436.564C261.449 435.769 261.895 435.069 262.514 434.574V434.574Z" fill="#263238"/>
<path opacity="0.2" d="M260.158 407.13L249.059 413.379L257.475 425.458L268.313 418.834L260.158 407.13Z" fill="black"/>
<path d="M286.899 258.666C286.899 258.666 200.853 255.813 200.513 294.042C200.094 348.986 249.138 421.144 249.138 421.144L268.326 407.575C268.326 407.575 234.714 355.123 234.426 312.232C259.779 304.619 319.503 309.448 327.238 287.042C333.573 268.756 330.262 258.666 330.262 258.666H286.899Z" fill="#407BFF"/>
<path opacity="0.2" d="M286.899 258.666C286.899 258.666 200.853 255.813 200.513 294.042C200.094 348.986 249.138 421.144 249.138 421.144L268.326 407.575C268.326 407.575 234.714 355.123 234.426 312.232C259.779 304.619 319.503 309.448 327.238 287.042C333.573 268.756 330.262 258.666 330.262 258.666H286.899Z" fill="black"/>
<path d="M273.535 411.069L250.708 425.932L243.549 418.208L268.627 401.41L273.535 411.069Z" fill="#263238"/>
<path d="M260.119 439.18C261.033 438.477 261.867 437.665 262.606 436.759C262.645 436.714 262.671 436.659 262.68 436.599C262.689 436.539 262.681 436.477 262.657 436.422C262.633 436.367 262.594 436.32 262.546 436.289C262.497 436.257 262.44 436.241 262.383 436.244C261.899 436.244 257.606 436.244 256.69 437.733C256.585 437.899 256.521 438.091 256.505 438.291C256.489 438.49 256.521 438.691 256.598 438.874C256.685 439.163 256.842 439.422 257.053 439.625C257.265 439.828 257.523 439.967 257.802 440.029C258.647 440.059 259.471 439.757 260.119 439.18V439.18ZM261.703 436.884C260.119 438.637 258.718 439.57 257.907 439.417C257.725 439.374 257.558 439.279 257.424 439.141C257.29 439.004 257.194 438.829 257.148 438.637C257.099 438.554 257.073 438.457 257.073 438.359C257.073 438.261 257.099 438.164 257.148 438.081C257.671 437.301 259.988 436.954 261.703 436.884V436.884Z" fill="#407BFF"/>
<path d="M262.554 436.814C262.591 436.784 262.622 436.746 262.645 436.703C262.67 436.656 262.684 436.604 262.684 436.55C262.684 436.496 262.67 436.443 262.645 436.397C262.567 436.258 260.734 432.945 259.007 432.639C258.774 432.591 258.534 432.603 258.306 432.673C258.079 432.743 257.87 432.87 257.698 433.043C257.5 433.199 257.358 433.42 257.291 433.672C257.225 433.924 257.239 434.192 257.331 434.434C257.881 435.826 260.904 436.953 262.357 436.856L262.554 436.814ZM258.247 433.363C258.342 433.288 258.45 433.235 258.565 433.206C258.68 433.177 258.799 433.174 258.915 433.196C259.949 433.377 261.205 435.116 261.86 436.174C260.433 436.035 258.287 435.061 257.933 434.156C257.868 433.989 257.829 433.753 258.156 433.446C258.182 433.474 258.208 433.433 258.247 433.363Z" fill="#407BFF"/>
<path d="M257.109 447.544L244.674 446.918L242.632 415.703L255.067 416.329L257.109 447.544Z" fill="#FFB573"/>
<path d="M244.386 445.472L258.457 444.999C258.694 444.979 258.929 445.061 259.111 445.225C259.292 445.389 259.405 445.623 259.425 445.876L260.459 457.691C260.481 458.316 260.268 458.925 259.868 459.384C259.468 459.843 258.914 460.115 258.326 460.14C253.431 460.14 251.075 459.987 244.884 460.14C241.075 460.265 233.588 460.864 228.366 460.14C223.143 459.417 223.942 453.975 226.206 453.766C231.586 453.307 238.797 449.355 242.253 446.279C242.861 445.768 243.611 445.484 244.386 445.472V445.472Z" fill="#263238"/>
<path d="M243.274 446.556C243.317 446.569 243.362 446.569 243.405 446.556C243.447 446.532 243.483 446.496 243.509 446.452C243.534 446.408 243.548 446.357 243.549 446.306C243.549 446.139 243.732 442.298 242.423 441.045C242.252 440.871 242.043 440.744 241.815 440.676C241.586 440.608 241.346 440.601 241.114 440.656C240.864 440.67 240.625 440.774 240.438 440.951C240.25 441.128 240.124 441.367 240.08 441.63C239.832 443.021 241.782 445.805 243.051 446.556C243.124 446.582 243.202 446.582 243.274 446.556V446.556ZM241.402 441.212C241.518 441.205 241.633 441.223 241.741 441.266C241.85 441.31 241.948 441.377 242.03 441.463C242.816 442.214 242.973 444.399 242.986 445.638C241.86 444.691 240.551 442.632 240.722 441.671C240.722 441.491 240.839 441.268 241.258 441.198L241.402 441.212Z" fill="#407BFF"/>
<path opacity="0.2" d="M255.08 416.329L242.632 415.703L243.797 433.558L256.205 433.544L255.08 416.329Z" fill="black"/>
<path d="M317.5 258.666C317.5 258.666 227.476 267.712 230.748 296.534C235.486 338.089 237.816 427.657 237.816 427.657L260.76 428.617C260.76 428.617 270.485 347.9 265.459 305.273C288.757 305.273 345.798 307.055 350.994 292.136C355.588 278.943 353.952 258.736 353.952 258.736L317.5 258.666Z" fill="#407BFF"/>
<path d="M263.3 430.121L235.761 428.673L234.766 415.925L264.975 418.138L263.3 430.121Z" fill="#263238"/>
<path d="M297.527 174.247C297.357 176.585 297.186 178.617 296.938 180.76C296.689 182.903 296.427 184.935 296.113 187.106C295.498 191.281 294.713 195.456 293.796 199.729C292.012 208.556 289.111 217.086 285.171 225.085C283.995 227.332 282.642 229.469 281.127 231.473C279.432 233.734 277.429 235.714 275.184 237.346C270.865 240.396 265.869 242.19 260.695 242.55C256.164 242.866 251.615 242.396 247.227 241.159C245.156 240.595 243.119 239.898 241.127 239.071C240.133 238.668 239.164 238.222 238.209 237.68C237.253 237.137 236.363 236.691 235.264 236.065L238.706 226.755L241.206 227.089L243.824 227.367C245.577 227.52 247.305 227.618 249.059 227.618C252.239 227.675 255.412 227.287 258.496 226.463C260.967 225.832 263.255 224.566 265.158 222.775C265.974 221.963 266.703 221.058 267.331 220.075C268.104 218.809 268.795 217.489 269.399 216.123C270.783 212.929 271.917 209.62 272.789 206.228C273.784 202.707 274.582 199.019 275.302 195.261C276.022 191.504 276.611 187.705 277.2 183.877L277.972 178.116C278.208 176.223 278.47 174.191 278.64 172.549L297.527 174.247Z" fill="#FFB573"/>
<path d="M297.605 162.905C288.443 153.456 277.056 159.036 272.527 176.822C269.964 186.316 268.212 196.037 267.292 205.866L296.44 212.268C301.741 195.303 307.029 172.591 297.605 162.905Z" fill="#263238"/>
<path opacity="0.3" d="M288.221 182.249C290.302 180.259 296.218 189.208 299.83 200.244C298.809 204.419 297.644 208.441 296.453 212.212L278.914 208.357C280.315 197.335 283.548 186.731 288.221 182.249Z" fill="black"/>
<path d="M236.729 222.58L230.185 219.922L229.897 234.688C229.897 234.688 240.892 239.739 243.13 233.936L242.344 230.248C241.966 228.623 241.27 227.101 240.303 225.78C239.336 224.459 238.118 223.369 236.729 222.58Z" fill="#FFB573"/>
<path d="M222.463 220.312L218.602 232.697L229.95 234.688L230.237 219.922L222.463 220.312Z" fill="#FFB573"/>
<path d="M232.358 230.179C232.22 230.181 232.084 230.142 231.965 230.065C231.847 229.989 231.752 229.879 231.69 229.747L220.002 205.824C219.909 205.636 219.89 205.416 219.949 205.213C220.008 205.01 220.14 204.839 220.316 204.739C220.496 204.645 220.702 204.629 220.893 204.694C221.083 204.758 221.242 204.899 221.337 205.087L232.986 228.968C233.079 229.156 233.098 229.376 233.039 229.579C232.98 229.782 232.848 229.953 232.672 230.053C232.576 230.116 232.469 230.159 232.358 230.179V230.179Z" fill="#263238"/>
<path d="M296.519 153.428L310.498 149.253L328.455 148.362C331.183 148.223 333.878 149.041 336.124 150.691C338.371 152.341 340.046 154.73 340.89 157.492C344.306 168.625 347.434 184.657 349.751 198.532C352.369 214.105 353.677 237.499 353.952 258.736H286.899C285.367 214.411 280.066 188.206 277.736 173.705C277.272 170.862 277.696 167.937 278.944 165.376C280.192 162.814 282.196 160.759 284.647 159.523L296.519 153.428Z" fill="#263238"/>
<path opacity="0.3" d="M349.751 198.476C347.945 187.552 345.615 175.249 343.023 165.076C331.073 162.933 325.288 190.794 328.835 204.613C332.382 218.433 351.295 210.055 351.295 210.055C350.85 205.894 350.327 201.983 349.751 198.476Z" fill="black"/>
<path d="M308.116 120.236C310.995 127.751 309.267 141.529 303.587 137.632C297.906 133.735 306.362 115.671 308.116 120.236Z" fill="#263238"/>
<path d="M304.974 125.051L299.542 133.874L292.16 145.885C293.114 146.912 293.886 148.114 294.438 149.433C295.747 152.328 296.912 154.485 291.192 158.632C290.577 159.051 290.089 159.649 289.785 160.355C289.481 161.061 289.374 161.844 289.477 162.613C289.817 164.491 291.571 166.314 297.736 165.159C303.677 163.95 309.099 160.751 313.207 156.03C315.262 153.845 314.791 152.203 312.814 149.934C307.16 143.533 305.485 133.304 304.974 125.051Z" fill="#FFB573"/>
<path opacity="0.2" d="M293.927 142.921L298.456 134.362C298.552 134.584 298.657 134.821 298.77 135.071C299.172 136.128 299.496 137.217 299.739 138.328C300.563 142.127 297.788 147.555 294.739 150.143L294.385 149.406C293.836 148.173 293.131 147.026 292.291 145.996C292.238 145.939 292.176 145.892 292.108 145.857L293.927 142.921Z" fill="black"/>
<path d="M266.742 114.669C265.054 118.719 271.035 130.187 277.88 125.552C284.726 120.918 269.726 107.502 266.742 114.669Z" fill="#263238"/>
<path d="M299.739 167.623C299.648 167.624 299.561 167.591 299.491 167.53C299.421 167.469 299.375 167.383 299.359 167.289C298.862 163.851 296.741 161.722 294.346 159.133C291.31 155.974 287.867 152.384 286.742 145.356C286.724 145.253 286.746 145.146 286.803 145.06C286.859 144.974 286.945 144.915 287.043 144.897C287.14 144.878 287.24 144.902 287.321 144.962C287.402 145.022 287.457 145.113 287.475 145.217C288.574 151.994 291.925 155.487 294.87 158.563C297.291 161.082 299.569 163.462 300.105 167.163C300.115 167.216 300.114 167.269 300.103 167.321C300.092 167.373 300.071 167.422 300.042 167.465C300.012 167.508 299.975 167.544 299.932 167.572C299.889 167.599 299.841 167.616 299.791 167.623H299.739Z" fill="white"/>
<path d="M302.527 110.592C305.144 123.2 307.186 130.451 302.958 138.425C296.571 150.491 280.603 148.849 274.53 137.242C269.059 126.805 265.799 107.934 275.969 99.7925C278.245 97.9937 280.91 96.8348 283.719 96.423C286.528 96.0112 289.389 96.36 292.038 97.4369C294.686 98.5138 297.036 100.284 298.869 102.584C300.703 104.883 301.961 107.638 302.527 110.592V110.592Z" fill="#FFB573"/>
<path d="M306.047 119.248C301.964 125.413 291.257 114.099 292.134 106.5C281.506 112.93 269.962 121.517 262.959 114.28C254.87 105.93 257.082 93.9614 266.559 92.8898C264.883 96.369 274.412 97.9137 279.477 92.5419C288.05 83.5238 301.597 85.4026 301.349 92.7089C307.88 89.9533 315.013 105.707 306.047 119.248Z" fill="#263238"/>
<path d="M300.092 94.7546C302.618 92.7506 300.943 85.6113 295.079 83.5238C300.655 84.2892 306.427 88.7008 300.092 94.7546Z" fill="#263238"/>
<path d="M309.83 118.691C309.943 121.574 309.058 124.401 307.343 126.638C305.092 129.491 301.623 127.222 300.799 123.66C300.079 120.473 301.008 115.532 303.966 114.002C306.924 112.471 309.673 115.101 309.83 118.691Z" fill="#FFB573"/>
<path d="M285.511 120.821C285.825 121.837 285.59 122.867 284.962 123.103C284.333 123.34 283.653 122.714 283.273 121.712C282.894 120.71 283.195 119.666 283.823 119.415C284.451 119.165 285.197 119.791 285.511 120.821Z" fill="#263238"/>
<path d="M274.778 124.996C275.106 126.025 274.857 127.055 274.229 127.292C273.6 127.528 272.854 126.902 272.54 125.9C272.226 124.898 272.475 123.854 273.09 123.618C273.705 123.381 274.464 123.98 274.778 124.996Z" fill="#263238"/>
<path d="M278.456 124.411C278.499 127.455 278.165 130.492 277.462 133.443C279.386 134.195 281.506 132.427 281.506 132.427L278.456 124.411Z" fill="#ED893E"/>
<path d="M284.202 138.091C285.317 137.702 286.346 137.075 287.225 136.25C288.105 135.425 288.818 134.418 289.32 133.29C289.351 133.213 289.352 133.125 289.322 133.047C289.293 132.969 289.236 132.906 289.163 132.873C289.088 132.844 289.006 132.847 288.933 132.881C288.86 132.915 288.802 132.976 288.77 133.054C288.208 134.269 287.39 135.331 286.38 136.156C285.37 136.981 284.195 137.548 282.946 137.813C282.905 137.819 282.866 137.833 282.83 137.856C282.795 137.878 282.764 137.908 282.74 137.944C282.716 137.98 282.699 138.02 282.69 138.063C282.682 138.106 282.681 138.15 282.689 138.193C282.697 138.236 282.714 138.277 282.737 138.313C282.761 138.349 282.791 138.38 282.826 138.403C282.861 138.426 282.901 138.441 282.941 138.447C282.982 138.454 283.024 138.451 283.064 138.439C283.45 138.35 283.83 138.234 284.202 138.091V138.091Z" fill="#263238"/>
<path d="M286.493 116.395C286.584 116.349 286.661 116.277 286.715 116.186C286.799 116.044 286.827 115.872 286.793 115.708C286.758 115.544 286.665 115.401 286.532 115.31C285.758 114.754 284.867 114.41 283.938 114.308C283.008 114.206 282.07 114.349 281.205 114.725C281.133 114.76 281.068 114.809 281.014 114.871C280.96 114.933 280.918 115.005 280.891 115.084C280.864 115.164 280.853 115.248 280.857 115.332C280.862 115.416 280.882 115.498 280.917 115.574C280.988 115.724 281.111 115.839 281.26 115.894C281.409 115.949 281.573 115.939 281.716 115.866C282.398 115.586 283.134 115.485 283.861 115.573C284.588 115.66 285.284 115.932 285.891 116.367C285.978 116.432 286.082 116.469 286.188 116.474C286.295 116.479 286.4 116.452 286.493 116.395V116.395Z" fill="#263238"/>
<path d="M272.658 118.399C272.683 118.294 272.683 118.184 272.658 118.079C272.595 117.925 272.477 117.803 272.33 117.741C272.183 117.678 272.019 117.68 271.873 117.745C271.001 118.104 270.227 118.688 269.619 119.443C269.012 120.198 268.59 121.102 268.391 122.073C268.365 122.237 268.402 122.406 268.492 122.542C268.583 122.677 268.721 122.769 268.875 122.797C269.03 122.825 269.188 122.786 269.316 122.689C269.444 122.593 269.53 122.446 269.556 122.282C269.726 121.523 270.068 120.82 270.552 120.233C271.035 119.646 271.646 119.193 272.331 118.914C272.422 118.865 272.5 118.792 272.557 118.702C272.614 118.612 272.649 118.507 272.658 118.399Z" fill="#263238"/>
<path d="M338.573 157.811C339.882 160.066 340.929 162.098 342.015 164.269C343.102 166.44 344.149 168.555 345.17 170.726C347.238 175.054 349.096 179.508 350.903 184.044C352.709 188.581 354.293 193.257 355.654 198.128C357.143 203.241 358.143 208.5 358.638 213.826C358.902 216.936 358.801 220.068 358.337 223.151C358.038 225.184 357.456 227.159 356.609 229.009C355.629 231.101 354.267 232.965 352.604 234.493C351.107 235.876 349.398 236.978 347.552 237.749C346.003 238.396 344.392 238.863 342.748 239.141C339.973 239.602 337.153 239.682 334.359 239.377C331.863 239.152 329.387 238.729 326.95 238.111C324.624 237.548 322.326 236.861 320.066 236.051C315.623 234.487 311.307 232.542 307.16 230.234L310.472 220.868C318.613 222.51 327.356 224.027 334.699 223.554C336.305 223.465 337.895 223.175 339.437 222.691C340.746 222.274 341.413 221.648 341.361 221.453C341.309 221.258 341.282 221.453 341.256 221.314C341.23 221.174 341.256 221.16 341.256 220.451C341.337 218.886 341.25 217.318 340.994 215.775C340.368 211.803 339.391 207.903 338.076 204.126C336.767 200.09 335.183 196.013 333.468 191.977C331.754 187.941 329.908 183.891 328.037 179.856C327.094 177.833 326.121 175.834 325.118 173.857L322.16 168.026L338.573 157.811Z" fill="#FFB573"/>
<path d="M332.461 148.501C319.817 146.455 313.6 157.992 319.555 175.221C322.63 184.541 326.494 193.545 331.099 202.122L358.363 189.416C353.403 172.368 345.392 150.603 332.461 148.501Z" fill="#263238"/>
<path d="M303.456 219.588L297.618 221.453L305.904 233.978C305.904 233.978 318.181 229.302 315.668 223.624L312.579 221.759C309.935 220.131 306.584 218.447 303.456 219.588Z" fill="#FFB573"/>
<path d="M292.448 230.081L298.299 236.288L305.904 233.964L297.618 221.453L292.448 230.081Z" fill="#FFB573"/>
<path d="M305.21 122.672C306.251 122.672 307.095 121.587 307.095 120.25C307.095 118.913 306.251 117.828 305.21 117.828C304.169 117.828 303.325 118.913 303.325 120.25C303.325 121.587 304.169 122.672 305.21 122.672Z" fill="white"/>
<path d="M306.767 126.652L305.681 126.61L305.013 121.029L307.081 120.542L306.767 126.652Z" fill="white"/>
<path d="M314.28 231.848C310.354 231.848 306.872 231.222 304.765 229.19C303.979 228.385 303.367 227.408 302.971 226.327C302.576 225.246 302.406 224.086 302.474 222.928C302.594 217.189 303.435 211.493 304.974 205.991C306.794 198.406 308.233 192.422 303.862 185.032C296.898 173.301 298.98 156.893 303.862 146.608C307.592 138.745 306.283 129.978 305.812 126.749C305.746 126.332 305.694 125.998 305.668 125.775C305.663 125.723 305.667 125.67 305.681 125.619C305.696 125.569 305.72 125.522 305.751 125.482C305.783 125.442 305.822 125.409 305.867 125.385C305.911 125.361 305.959 125.347 306.008 125.343C306.107 125.332 306.206 125.361 306.285 125.426C306.363 125.492 306.414 125.587 306.427 125.691C306.427 125.9 306.493 126.22 306.545 126.624C307.042 129.978 308.338 138.871 304.49 146.97C299.713 157.06 297.671 173.134 304.49 184.545C309.032 192.213 307.487 198.657 305.694 206.116C304.186 211.543 303.363 217.159 303.247 222.816C303.176 223.863 303.321 224.913 303.671 225.894C304.021 226.874 304.569 227.762 305.275 228.494C308.809 231.876 316.61 231.013 324.149 230.178C327.526 229.817 331.021 229.427 334.097 229.427C334.197 229.427 334.294 229.469 334.365 229.545C334.436 229.621 334.476 229.723 334.476 229.83C334.476 229.937 334.436 230.04 334.365 230.116C334.294 230.192 334.197 230.234 334.097 230.234C331.06 230.234 327.552 230.61 324.228 230.986C320.928 231.451 317.608 231.739 314.28 231.848V231.848Z" fill="white"/>
<path d="M349.764 228.87H334.869C334.435 228.87 334.084 229.244 334.084 229.705V230.819C334.084 231.28 334.435 231.654 334.869 231.654H349.764C350.198 231.654 350.549 231.28 350.549 230.819V229.705C350.549 229.244 350.198 228.87 349.764 228.87Z" fill="white"/>
<path d="M443.244 240.922H80.3189C79.164 240.918 78.0574 240.429 77.2407 239.56C76.4241 238.692 75.9638 237.516 75.9603 236.288C75.9638 235.06 76.4241 233.883 77.2407 233.015C78.0574 232.146 79.164 231.657 80.3189 231.653H443.244C444.399 231.657 445.505 232.146 446.322 233.015C447.139 233.883 447.599 235.06 447.602 236.288V236.288C447.599 237.516 447.139 238.692 446.322 239.56C445.505 240.429 444.399 240.918 443.244 240.922V240.922Z" fill="#407BFF"/>
<path opacity="0.3" d="M443.244 240.922H358.285C357.13 240.918 356.023 240.429 355.206 239.56C354.39 238.692 353.929 237.516 353.926 236.288V236.288C353.929 235.06 354.39 233.883 355.206 233.015C356.023 232.146 357.13 231.657 358.285 231.653H443.244C444.399 231.657 445.505 232.146 446.322 233.015C447.138 233.883 447.599 235.06 447.602 236.288V236.288C447.599 237.516 447.138 238.692 446.322 239.56C445.505 240.429 444.399 240.918 443.244 240.922V240.922Z" fill="#263238"/>
<path d="M439.239 459.276H447.602L437.982 240.922H426.412L439.239 459.276Z" fill="#263238"/>
<path opacity="0.1" d="M439.239 459.276H447.602L437.982 240.922H426.412L439.239 459.276Z" fill="white"/>
<path d="M362.29 459.276H353.926L363.546 240.922H375.117L362.29 459.276Z" fill="#263238"/>
<path opacity="0.2" d="M362.29 459.276H353.926L363.546 240.922H375.117L362.29 459.276Z" fill="white"/>
<path d="M161.286 459.276H169.636L160.016 240.922H148.446L161.286 459.276Z" fill="#263238"/>
<path opacity="0.1" d="M161.286 459.276H169.636L160.016 240.922H148.446L161.286 459.276Z" fill="white"/>
<path d="M84.324 459.276H75.9603L85.5806 240.922H97.151L84.324 459.276Z" fill="#263238"/>
<path opacity="0.2" d="M84.324 459.276H75.9603L85.5806 240.922H97.151L84.324 459.276Z" fill="white"/>
<path d="M367.133 252.543H88.0151V270.843H367.133V252.543Z" fill="#263238"/>
<path opacity="0.2" d="M367.133 252.543H88.0151V270.843H367.133V252.543Z" fill="white"/>
<path d="M133.944 219.351C133.46 219.351 132.996 219.554 132.652 219.917C132.309 220.279 132.115 220.771 132.111 221.286V229.636C132.111 230.152 132.304 230.648 132.648 231.013C132.991 231.379 133.458 231.584 133.944 231.584H193.301C193.458 231.584 193.61 231.518 193.722 231.401C193.835 231.284 193.9 231.125 193.903 230.958V219.908C193.9 219.74 193.835 219.581 193.722 219.464C193.61 219.347 193.458 219.281 193.301 219.281L133.944 219.351Z" fill="#407BFF"/>
<path opacity="0.9" d="M169.074 220.52H193.942V230.485H169.074C168.792 230.485 168.523 230.366 168.324 230.154C168.125 229.943 168.013 229.656 168.013 229.357V221.634C168.017 221.337 168.13 221.054 168.329 220.846C168.527 220.637 168.795 220.52 169.074 220.52V220.52Z" fill="white"/>
<path d="M164.99 219.351H105.03C104.018 219.351 103.198 220.223 103.198 221.299V229.719C103.198 230.795 104.018 231.667 105.03 231.667H164.99C166.002 231.667 166.822 230.795 166.822 229.719V221.299C166.822 220.223 166.002 219.351 164.99 219.351Z" fill="#407BFF"/>
<path opacity="0.2" d="M164.99 219.351H105.03C104.018 219.351 103.198 220.223 103.198 221.299V229.719C103.198 230.795 104.018 231.667 105.03 231.667H164.99C166.002 231.667 166.822 230.795 166.822 229.719V221.299C166.822 220.223 166.002 219.351 164.99 219.351Z" fill="black"/>
<path opacity="0.5" d="M135.501 219.351H126.404C125.992 219.351 125.658 219.706 125.658 220.144V230.874C125.658 231.312 125.992 231.667 126.404 231.667H135.501C135.913 231.667 136.247 231.312 136.247 230.874V220.144C136.247 219.706 135.913 219.351 135.501 219.351Z" fill="#407BFF"/>
<path opacity="0.5" d="M148.629 219.351H139.545C139.133 219.351 138.799 219.706 138.799 220.144V230.874C138.799 231.312 139.133 231.667 139.545 231.667H148.629C149.041 231.667 149.375 231.312 149.375 230.874V220.144C149.375 219.706 149.041 219.351 148.629 219.351Z" fill="#407BFF"/>
<path d="M123.211 204.182C122.97 204.182 122.732 204.232 122.509 204.33C122.287 204.428 122.085 204.571 121.915 204.752C121.745 204.933 121.61 205.148 121.518 205.384C121.426 205.621 121.378 205.874 121.378 206.13V217.403C121.378 217.658 121.426 217.912 121.518 218.148C121.61 218.385 121.745 218.599 121.915 218.78C122.085 218.961 122.287 219.105 122.509 219.203C122.732 219.301 122.97 219.351 123.211 219.351H187.516C187.673 219.347 187.823 219.278 187.933 219.159C188.043 219.039 188.105 218.878 188.105 218.711V204.794C188.105 204.627 188.043 204.466 187.933 204.346C187.823 204.226 187.673 204.157 187.516 204.154L123.211 204.182Z" fill="#407BFF"/>
<path opacity="0.9" d="M158.38 205.365H188.144V218.182H158.38C158.099 218.182 157.829 218.063 157.63 217.852C157.432 217.64 157.32 217.354 157.32 217.055V206.52C157.316 206.369 157.341 206.22 157.393 206.08C157.445 205.94 157.522 205.812 157.621 205.705C157.72 205.597 157.838 205.511 157.968 205.453C158.099 205.395 158.239 205.365 158.38 205.365Z" fill="white"/>
<path d="M154.244 204.182H103.826C102.814 204.182 101.994 205.054 101.994 206.13V217.389C101.994 218.465 102.814 219.337 103.826 219.337H154.244C155.256 219.337 156.077 218.465 156.077 217.389V206.13C156.077 205.054 155.256 204.182 154.244 204.182Z" fill="#407BFF"/>
<path opacity="0.2" d="M154.244 204.182H103.826C102.814 204.182 101.994 205.054 101.994 206.13V217.389C101.994 218.465 102.814 219.337 103.826 219.337H154.244C155.256 219.337 156.077 218.465 156.077 217.389V206.13C156.077 205.054 155.256 204.182 154.244 204.182Z" fill="white"/>
<path opacity="0.6" d="M149.519 207.188H112.596C111.981 207.188 111.483 207.717 111.483 208.371V215.148C111.483 215.802 111.981 216.331 112.596 216.331H149.519C150.134 216.331 150.632 215.802 150.632 215.148V208.371C150.632 207.717 150.134 207.188 149.519 207.188Z" fill="#407BFF"/>
<path d="M142.072 196.931C141.064 196.931 140.239 197.446 140.239 198.072V203.041C140.239 203.667 141.064 204.182 142.072 204.182H201.442C201.769 204.182 202.031 204.015 202.031 203.82V197.307C202.031 197.098 201.769 196.931 201.442 196.931H142.072Z" fill="#407BFF"/>
<path opacity="0.9" d="M176.966 197.613H202.031V203.486H176.966C176.751 203.486 176.545 203.395 176.392 203.233C176.24 203.071 176.155 202.852 176.155 202.623V198.448C176.162 198.224 176.25 198.012 176.402 197.856C176.553 197.7 176.756 197.613 176.966 197.613V197.613Z" fill="white"/>
<path d="M173.55 196.931H112.727C111.953 196.931 111.326 197.598 111.326 198.42V202.707C111.326 203.529 111.953 204.196 112.727 204.196H173.55C174.323 204.196 174.951 203.529 174.951 202.707V198.42C174.951 197.598 174.323 196.931 173.55 196.931Z" fill="#407BFF"/>
<path opacity="0.2" d="M173.55 196.931H112.727C111.953 196.931 111.326 197.598 111.326 198.42V202.707C111.326 203.529 111.953 204.196 112.727 204.196H173.55C174.323 204.196 174.951 203.529 174.951 202.707V198.42C174.951 197.598 174.323 196.931 173.55 196.931Z" fill="black"/>
<path opacity="0.5" d="M120.37 196.931H118.473C118.321 196.931 118.198 197.062 118.198 197.224V203.904C118.198 204.065 118.321 204.196 118.473 204.196H120.37C120.522 204.196 120.645 204.065 120.645 203.904V197.224C120.645 197.062 120.522 196.931 120.37 196.931Z" fill="#407BFF"/>
<path opacity="0.5" d="M169.741 196.931H167.883C167.731 196.931 167.608 197.062 167.608 197.224V203.904C167.608 204.065 167.731 204.196 167.883 204.196H169.741C169.893 204.196 170.016 204.065 170.016 203.904V197.224C170.016 197.062 169.893 196.931 169.741 196.931Z" fill="#407BFF"/>
<path d="M131.339 186.438C130.331 186.438 129.506 186.953 129.506 187.579V195.776C129.506 196.416 130.331 196.931 131.339 196.931H195.644C195.971 196.931 196.246 196.764 196.246 196.555V186.814C196.246 186.605 195.971 186.438 195.644 186.438H131.339Z" fill="#407BFF"/>
<path opacity="0.9" d="M166.233 187.12H196.246V196.235H166.233C166.018 196.235 165.812 196.145 165.66 195.983C165.507 195.821 165.422 195.601 165.422 195.373V187.983C165.422 187.754 165.507 187.535 165.66 187.373C165.812 187.211 166.018 187.12 166.233 187.12V187.12Z" fill="white"/>
<path d="M162.804 186.438H111.522C110.749 186.438 110.122 187.105 110.122 187.927V195.442C110.122 196.265 110.749 196.931 111.522 196.931H162.804C163.578 196.931 164.205 196.265 164.205 195.442V187.927C164.205 187.105 163.578 186.438 162.804 186.438Z" fill="#407BFF"/>
<path opacity="0.1" d="M162.804 186.438H111.522C110.749 186.438 110.122 187.105 110.122 187.927V195.442C110.122 196.265 110.749 196.931 111.522 196.931H162.804C163.578 196.931 164.205 196.265 164.205 195.442V187.927C164.205 187.105 163.578 186.438 162.804 186.438Z" fill="black"/>
<path d="M274.765 229.343H220.748C220.459 229.343 220.181 229.465 219.975 229.681C219.769 229.897 219.652 230.191 219.649 230.498V230.498C219.652 230.806 219.769 231.1 219.975 231.316C220.181 231.532 220.459 231.653 220.748 231.653H274.765C275.054 231.653 275.33 231.532 275.534 231.315C275.737 231.099 275.852 230.805 275.852 230.498V230.498C275.852 230.192 275.737 229.898 275.534 229.682C275.33 229.465 275.054 229.343 274.765 229.343V229.343Z" fill="white"/>
<path d="M380.444 226.588H415.941L419.147 231.528H377.237L380.444 226.588Z" fill="#263238"/>
<path d="M435.26 142.266C435.26 143.271 434.979 144.253 434.454 145.088C433.929 145.924 433.183 146.575 432.31 146.959C431.437 147.344 430.477 147.444 429.55 147.248C428.623 147.052 427.772 146.568 427.104 145.858C426.436 145.148 425.981 144.243 425.797 143.257C425.612 142.272 425.707 141.25 426.068 140.322C426.43 139.394 427.042 138.601 427.828 138.043C428.614 137.484 429.537 137.187 430.482 137.187C431.11 137.185 431.732 137.315 432.312 137.569C432.893 137.824 433.42 138.198 433.864 138.67C434.308 139.142 434.66 139.703 434.899 140.32C435.139 140.937 435.261 141.599 435.26 142.266V142.266Z" fill="black"/>
<path d="M399.37 229.928C399.121 229.927 398.876 229.861 398.657 229.736C398.438 229.611 398.251 229.431 398.112 229.211C397.974 228.991 397.889 228.738 397.864 228.475C397.839 228.212 397.875 227.946 397.97 227.701L432.17 141.64C432.347 141.281 432.644 141.005 433.003 140.868C433.362 140.731 433.756 140.742 434.107 140.9C434.459 141.058 434.741 141.35 434.899 141.72C435.057 142.089 435.078 142.507 434.958 142.893L400.757 228.94C400.642 229.231 400.45 229.479 400.203 229.655C399.956 229.83 399.667 229.925 399.37 229.928Z" fill="#263238"/>
<path d="M433.558 143.895C433.233 143.891 432.917 143.779 432.655 143.574L370.549 94.0447C370.229 93.79 370.018 93.4109 369.962 92.9907C369.905 92.5705 370.008 92.1437 370.248 91.8041C370.487 91.4646 370.844 91.2401 371.239 91.18C371.634 91.12 372.036 91.2294 372.355 91.484L434.474 140.986C434.725 141.191 434.91 141.474 435.002 141.796C435.094 142.118 435.089 142.462 434.988 142.781C434.888 143.1 434.695 143.377 434.439 143.575C434.182 143.772 433.874 143.879 433.558 143.881V143.895Z" fill="#263238"/>
<path d="M438.335 142.266C438.335 143.271 438.055 144.253 437.53 145.088C437.005 145.924 436.259 146.575 435.386 146.959C434.513 147.344 433.553 147.444 432.626 147.248C431.699 147.052 430.848 146.568 430.18 145.858C429.512 145.148 429.057 144.243 428.872 143.257C428.688 142.272 428.783 141.25 429.144 140.322C429.506 139.394 430.118 138.601 430.904 138.043C431.689 137.484 432.613 137.187 433.558 137.187C434.186 137.185 434.808 137.315 435.388 137.569C435.969 137.824 436.496 138.198 436.94 138.67C437.384 139.142 437.736 139.703 437.975 140.32C438.215 140.937 438.337 141.599 438.335 142.266V142.266Z" fill="#263238"/>
<path d="M371.452 97.8301C374.083 97.8301 376.216 95.5621 376.216 92.7644C376.216 89.9667 374.083 87.6987 371.452 87.6987C368.821 87.6987 366.688 89.9667 366.688 92.7644C366.688 95.5621 368.821 97.8301 371.452 97.8301Z" fill="#263238"/>
<path d="M364.777 115.922C363.283 117.51 361.38 118.592 359.308 119.03C357.236 119.468 355.089 119.243 353.137 118.383C351.186 117.524 349.518 116.068 348.344 114.201C347.171 112.333 346.544 110.138 346.544 107.892C346.544 105.646 347.171 103.45 348.344 101.583C349.518 99.7153 351.186 98.2597 353.137 97.4002C355.089 96.5407 357.236 96.3158 359.308 96.754C361.38 97.1921 363.283 98.2737 364.777 99.8619C366.777 101.993 367.9 104.881 367.9 107.892C367.9 110.903 366.777 113.79 364.777 115.922V115.922Z" fill="#407BFF"/>
<path opacity="0.7" d="M364.777 115.922C363.283 117.51 361.38 118.592 359.308 119.03C357.236 119.468 355.089 119.243 353.137 118.383C351.186 117.524 349.518 116.068 348.344 114.201C347.171 112.333 346.544 110.138 346.544 107.892C346.544 105.646 347.171 103.45 348.344 101.583C349.518 99.7153 351.186 98.2597 353.137 97.4002C355.089 96.5407 357.236 96.3158 359.308 96.754C361.38 97.1921 363.283 98.2737 364.777 99.8619C366.777 101.993 367.9 104.881 367.9 107.892C367.9 110.903 366.777 113.79 364.777 115.922V115.922Z" fill="white"/>
<path d="M371.452 92.7644C369.328 90.5039 366.807 88.7107 364.031 87.4872C361.255 86.2637 358.279 85.6339 355.274 85.6339C352.269 85.6339 349.294 86.2637 346.518 87.4872C343.742 88.7107 341.22 90.5039 339.097 92.7644L371.452 127.194C373.58 124.935 375.269 122.252 376.421 119.298C377.573 116.344 378.166 113.177 378.166 109.979C378.166 106.782 377.573 103.615 376.421 100.661C375.269 97.7073 373.58 95.0238 371.452 92.7644V92.7644Z" fill="#263238"/>
<g opacity="0.2">
<path opacity="0.2" d="M339.083 92.7642L203.196 231.653H342.604L371.452 127.18L339.083 92.7642Z" fill="#407BFF"/>
<path opacity="0.7" d="M339.083 92.7642L203.196 231.653H342.604L371.452 127.18L339.083 92.7642Z" fill="white"/>
</g>
</svg>
