<svg width="131" height="130" viewBox="0 0 131 130" fill="none" xmlns="http://www.w3.org/2000/svg">
<g clip-path="url(#clip0)">
<path d="M102.516 55.5427C103.1 62.0357 100.325 69.1603 97.1178 75.9753C93.9059 82.8553 90.2626 89.4259 84.8627 94.3058C79.3977 99.188 72.1762 102.38 64.6052 103.736C57.0343 105.093 49.0441 104.681 44.1171 100.667C39.1551 96.6869 37.2214 89.1377 35.1339 82.3389C33.0465 75.54 30.8003 69.5566 30.0045 62.4227C29.1737 55.3223 29.8281 47.0379 33.8116 40.2616C37.7601 33.5188 45.0727 28.2504 52.3344 27.5523C59.596 26.8542 66.7719 30.7601 73.6741 33.1198C80.6064 35.511 87.3302 36.3539 92.6617 39.7386C97.9581 43.1568 101.902 49.0183 102.516 55.5427Z" fill="#95B5FF"/>
</g>
<defs>
<clipPath id="clip0">
<rect width="87" height="97" fill="white" transform="translate(69.9906) rotate(46.1828)"/>
</clipPath>
</defs>
</svg>
