<svg width="1440" height="134" viewBox="0 0 1440 134" fill="none" xmlns="http://www.w3.org/2000/svg">
<path d="M0 8.64886L37.5 23.3757C51.6 34.4381 56 23.3757 85 52.8986C112.9 82.1449 141 75.2308 169 82.3523C197.6 89.7503 226 67.6254 254 67.6254C282.4 67.6254 311 89.7503 339 78.6879C367.1 67.6254 395 23.3757 424 8.64886C451.8 -6.35456 480 8.85628 508 23.3757C536.5 37.8952 565 53.106 593 56.563C621.2 60.02 649 53.106 678 52.8986C705.9 53.106 734 60.02 762 52.8986C790.6 45.5006 819 23.3757 847 19.7113C875.3 15.7703 904 30.9811 932 45.5006C960 60.02 988 75.2309 1016 56.563C1044.7 37.8952 1037 38.3791 1065 8.64886C1093.4 -21.0814 1158 42.0436 1186 45.5006C1214.1 48.9576 1280 -24.331 1309 8.64886C1336.8 42.0436 1354.5 52.6911 1382.5 52.8986C1411 52.6911 1411.9 45.7771 1425.9 19.7113L1440 8.64886V134H1425.9C1411.8 134 1384 134 1355 134C1327.1 134 1299 134 1271 134C1242.4 134 1214 134 1186 134C1157.6 134 1129 134 1101 134C1072.9 134 1045 134 1016 134C988.2 134 960 134 932 134C903.5 134 875 134 847 134C818.8 134 791 134 762 134C734.1 134 706 134 678 134C649.4 134 621 134 593 134C564.7 134 536 134 508 134C480 134 452 134 424 134C395.3 134 367 134 339 134C310.6 134 282 134 254 134C225.9 134 198 134 169 134C141.2 134 113 134 85 134C56.5 134 28 134 14 134H0V8.64886Z" fill="#93A4D5"/>
</svg>
