<svg width="1440" height="180" viewBox="0 0 1440 180" fill="none" xmlns="http://www.w3.org/2000/svg">
<path d="M0 10.1314L14.1 19.5686C28.2 29.0057 56 47.88 85 73.0654C112.9 98.0148 141 129.865 169 135.94C197.6 142.251 226 123.377 254 123.377C282.4 123.377 311 142.251 339 132.814C367.1 123.377 395 85.6286 424 73.0654C451.8 60.2663 480 73.2423 508 85.6286C536.5 98.0148 565 110.991 593 113.94C621.2 116.889 649 110.991 678 110.814C705.9 110.991 734 116.889 762 110.814C790.6 104.503 819 85.6286 847 82.5025C875.3 79.1405 904 92.1166 932 104.503C960 116.889 988 129.865 1016 113.94C1044.7 98.0148 1073 54.368 1101 29.0057C1129.4 3.6434 1158 -2.25481 1186 0.69429C1214.1 3.6434 1242 16.6195 1271 44.754C1298.8 73.2423 1327 116.889 1355 117.066C1383.5 116.889 1412 73.2423 1426 51.0061L1440 29.0057V180H1425.9C1411.8 180 1384 180 1355 180C1327.1 180 1299 180 1271 180C1242.4 180 1214 180 1186 180C1157.6 180 1129 180 1101 180C1072.9 180 1045 180 1016 180C988.2 180 960 180 932 180C903.5 180 875 180 847 180C818.8 180 791 180 762 180C734.1 180 706 180 678 180C649.4 180 621 180 593 180C564.7 180 536 180 508 180C480 180 452 180 424 180C395.3 180 367 180 339 180C310.6 180 282 180 254 180C225.9 180 198 180 169 180C141.2 180 113 180 85 180C56.5 180 28 180 14 180H0V10.1314Z" fill="#93A4D5"/>
</svg>
