<svg width="107" height="98" viewBox="0 0 107 98" fill="none" xmlns="http://www.w3.org/2000/svg">
<path d="M70.2455 29.106C76.505 32.046 83.7275 34.937 86.6165 39.886C89.5055 44.884 88.1145 51.891 85.279 58.016C82.39 64.141 78.11 69.335 72.546 75.068C67.0355 80.801 60.241 87.024 54.6235 85.603C49.006 84.133 44.5655 75.019 40.339 68.894C36.1125 62.818 32.207 59.633 27.3385 54.733C22.5235 49.784 16.799 43.071 16.478 36.113C16.157 29.155 21.186 21.903 28.248 19.208C35.3635 16.513 44.405 18.375 51.574 20.776C58.743 23.177 64.0395 26.166 70.2455 29.106Z" fill="#FDC7A8"/>
</svg>
