<svg width="1440" height="183" viewBox="0 0 1440 183" fill="none" xmlns="http://www.w3.org/2000/svg">
<path d="M0 172.7L14.1 163.105C28.2 153.511 56 134.322 85 108.717C112.9 83.3516 141 50.9704 169 44.794C197.6 38.3777 226 57.5666 254 57.5666C282.4 57.5666 311 38.3777 339 47.9721C367.1 57.5666 395 95.9443 424 108.717C451.8 121.729 480 108.537 508 95.9443C536.5 83.3516 565 70.1593 593 67.161C621.2 64.1627 649 70.1593 678 70.3392C705.9 70.1593 734 64.1627 762 70.3392C790.6 76.7554 819 95.9443 847 99.1224C875.3 102.54 904 89.3481 932 76.7554C960 64.1627 988 50.9704 1016 67.161C1044.7 83.3516 1073 127.726 1101 153.511C1129.4 179.296 1158 185.292 1186 182.294C1214.1 179.296 1242 166.104 1271 137.5C1298.8 108.537 1327 64.1627 1355 63.9828C1383.5 64.1627 1412 108.537 1426 131.144L1440 153.511V0H1425.9C1411.8 0 1384 0 1355 0C1327.1 0 1299 0 1271 0C1242.4 0 1214 0 1186 0C1157.6 0 1129 0 1101 0C1072.9 0 1045 0 1016 0C988.2 0 960 0 932 0C903.5 0 875 0 847 0C818.8 0 791 0 762 0C734.1 0 706 0 678 0C649.4 0 621 0 593 0C564.7 0 536 0 508 0C480 0 452 0 424 0C395.3 0 367 0 339 0C310.6 0 282 0 254 0C225.9 0 198 0 169 0C141.2 0 113 0 85 0C56.5 0 28 0 14 0H0V172.7Z" fill="#7A8ECB" fill-opacity="0.81"/>
</svg>
