<svg width="227" height="34" viewBox="0 0 227 34" fill="none" xmlns="http://www.w3.org/2000/svg">
<rect x="1.97559" width="30.4762" height="34" rx="5" fill="#5E76C2"/>
<rect x="5.40381" y="2.71997" width="23.619" height="28.56" rx="5" fill="#536FC6"/>
<rect x="0.45166" y="10.2004" width="2.28571" height="0.68" rx="0.34" fill="#333333"/>
<rect x="9.59473" y="10.1999" width="15.2381" height="0.68" rx="0.34" fill="white"/>
<rect x="9.59473" y="14.96" width="15.2381" height="0.68" rx="0.34" fill="white"/>
<rect x="9.59473" y="19.7199" width="15.2381" height="0.68" rx="0.34" fill="white"/>
<rect x="9.59473" y="24.48" width="15.2381" height="0.68" rx="0.34" fill="white"/>
<rect x="0.45166" y="14.96" width="2.28571" height="0.68" rx="0.34" fill="#333333"/>
<rect x="0.45166" y="19.72" width="2.28571" height="0.68" rx="0.34" fill="#333333"/>
<rect x="0.45166" y="24.4801" width="2.28571" height="0.68" rx="0.34" fill="#333333"/>
<mask id="path-11-inside-1" fill="white">
<ellipse cx="3.44501" cy="10.54" rx="0.761905" ry="0.68"/>
</mask>
<ellipse cx="3.44501" cy="10.54" rx="0.761905" ry="0.68" fill="#333333"/>
<path d="M3.20691 10.54C3.20691 10.4122 3.26717 10.3201 3.31789 10.2748C3.36683 10.2311 3.41463 10.22 3.44501 10.22V12.22C4.30811 12.22 5.20691 11.5718 5.20691 10.54H3.20691ZM3.44501 10.22C3.47539 10.22 3.52319 10.2311 3.57213 10.2748C3.62285 10.3201 3.68311 10.4122 3.68311 10.54H1.68311C1.68311 11.5718 2.58191 12.22 3.44501 12.22V10.22ZM3.68311 10.54C3.68311 10.6678 3.62285 10.76 3.57213 10.8053C3.52319 10.849 3.47539 10.86 3.44501 10.86V8.86005C2.58191 8.86005 1.68311 9.50831 1.68311 10.54H3.68311ZM3.44501 10.86C3.41463 10.86 3.36683 10.849 3.31789 10.8053C3.26717 10.76 3.20691 10.6678 3.20691 10.54H5.20691C5.20691 9.50831 4.30811 8.86005 3.44501 8.86005V10.86Z" fill="white" mask="url(#path-11-inside-1)"/>
<mask id="path-13-inside-2" fill="white">
<ellipse cx="3.44501" cy="15.2999" rx="0.761905" ry="0.68"/>
</mask>
<ellipse cx="3.44501" cy="15.2999" rx="0.761905" ry="0.68" fill="#333333"/>
<path d="M3.20691 15.2999C3.20691 15.1721 3.26717 15.08 3.31789 15.0347C3.36683 14.991 3.41463 14.9799 3.44501 14.9799V16.9799C4.30811 16.9799 5.20691 16.3317 5.20691 15.2999H3.20691ZM3.44501 14.9799C3.47539 14.9799 3.52319 14.991 3.57213 15.0347C3.62285 15.08 3.68311 15.1721 3.68311 15.2999H1.68311C1.68311 16.3317 2.58191 16.9799 3.44501 16.9799V14.9799ZM3.68311 15.2999C3.68311 15.4277 3.62285 15.5199 3.57213 15.5652C3.52319 15.6088 3.47539 15.6199 3.44501 15.6199V13.6199C2.58191 13.6199 1.68311 14.2682 1.68311 15.2999H3.68311ZM3.44501 15.6199C3.41463 15.6199 3.36683 15.6088 3.31789 15.5652C3.26717 15.5199 3.20691 15.4277 3.20691 15.2999H5.20691C5.20691 14.2682 4.30811 13.6199 3.44501 13.6199V15.6199Z" fill="white" mask="url(#path-13-inside-2)"/>
<mask id="path-15-inside-3" fill="white">
<ellipse cx="3.44501" cy="20.0599" rx="0.761905" ry="0.68"/>
</mask>
<ellipse cx="3.44501" cy="20.0599" rx="0.761905" ry="0.68" fill="#333333"/>
<path d="M3.20691 20.0599C3.20691 19.9321 3.26717 19.84 3.31789 19.7947C3.36683 19.751 3.41463 19.7399 3.44501 19.7399V21.7399C4.30811 21.7399 5.20691 21.0917 5.20691 20.0599H3.20691ZM3.44501 19.7399C3.47539 19.7399 3.52319 19.751 3.57213 19.7947C3.62285 19.84 3.68311 19.9321 3.68311 20.0599H1.68311C1.68311 21.0917 2.58191 21.7399 3.44501 21.7399V19.7399ZM3.68311 20.0599C3.68311 20.1877 3.62285 20.2799 3.57213 20.3252C3.52319 20.3689 3.47539 20.3799 3.44501 20.3799V18.3799C2.58191 18.3799 1.68311 19.0282 1.68311 20.0599H3.68311ZM3.44501 20.3799C3.41463 20.3799 3.36683 20.3689 3.31789 20.3252C3.26717 20.2799 3.20691 20.1877 3.20691 20.0599H5.20691C5.20691 19.0282 4.30811 18.3799 3.44501 18.3799V20.3799Z" fill="white" mask="url(#path-15-inside-3)"/>
<mask id="path-17-inside-4" fill="white">
<ellipse cx="3.44501" cy="24.8198" rx="0.761905" ry="0.68"/>
</mask>
<ellipse cx="3.44501" cy="24.8198" rx="0.761905" ry="0.68" fill="#333333"/>
<path d="M3.20691 24.8198C3.20691 24.692 3.26717 24.5999 3.31789 24.5546C3.36683 24.5109 3.41463 24.4998 3.44501 24.4998V26.4998C4.30811 26.4998 5.20691 25.8516 5.20691 24.8198H3.20691ZM3.44501 24.4998C3.47539 24.4998 3.52319 24.5109 3.57213 24.5546C3.62285 24.5999 3.68311 24.692 3.68311 24.8198H1.68311C1.68311 25.8516 2.58191 26.4998 3.44501 26.4998V24.4998ZM3.68311 24.8198C3.68311 24.9476 3.62285 25.0398 3.57213 25.0851C3.52319 25.1287 3.47539 25.1398 3.44501 25.1398V23.1398C2.58191 23.1398 1.68311 23.7881 1.68311 24.8198H3.68311ZM3.44501 25.1398C3.41463 25.1398 3.36683 25.1287 3.31789 25.0851C3.26717 25.0398 3.20691 24.9476 3.20691 24.8198H5.20691C5.20691 23.7881 4.30811 23.1398 3.44501 23.1398V25.1398Z" fill="white" mask="url(#path-17-inside-4)"/>
<path d="M55.7317 3C58.1583 3 60.265 3.4 62.0517 4.2C63.865 5 65.2517 6.14666 66.2117 7.64C67.1717 9.13333 67.6517 10.9067 67.6517 12.96C67.6517 14.9867 67.1717 16.76 66.2117 18.28C65.2517 19.7733 63.865 20.92 62.0517 21.72C60.265 22.52 58.1583 22.92 55.7317 22.92H49.4117V31H44.2117V3H55.7317ZM55.4917 18.52C57.7583 18.52 59.4783 18.04 60.6517 17.08C61.825 16.12 62.4117 14.7467 62.4117 12.96C62.4117 11.1733 61.825 9.8 60.6517 8.84C59.4783 7.88 57.7583 7.4 55.4917 7.4H49.4117V18.52H55.4917ZM76.9292 12.76C78.3692 10.52 80.9025 9.4 84.5292 9.4V14.16C84.1025 14.08 83.7158 14.04 83.3692 14.04C81.4225 14.04 79.9025 14.6133 78.8092 15.76C77.7158 16.88 77.1692 18.5067 77.1692 20.64V31H72.1692V9.64H76.9292V12.76ZM108.655 20.44C108.655 20.7867 108.629 21.28 108.575 21.92H91.8154C92.1087 23.4933 92.8687 24.7467 94.0954 25.68C95.3487 26.5867 96.8954 27.04 98.7354 27.04C101.082 27.04 103.015 26.2667 104.535 24.72L107.215 27.8C106.255 28.9467 105.042 29.8133 103.575 30.4C102.109 30.9867 100.455 31.28 98.6154 31.28C96.2687 31.28 94.2021 30.8133 92.4154 29.88C90.6287 28.9467 89.2421 27.6533 88.2554 26C87.2954 24.32 86.8154 22.4267 86.8154 20.32C86.8154 18.24 87.2821 16.3733 88.2154 14.72C89.1754 13.04 90.4954 11.7333 92.1754 10.8C93.8554 9.86667 95.7487 9.4 97.8554 9.4C99.9354 9.4 101.789 9.86667 103.415 10.8C105.069 11.7067 106.349 13 107.255 14.68C108.189 16.3333 108.655 18.2533 108.655 20.44ZM97.8554 13.4C96.2554 13.4 94.8954 13.88 93.7754 14.84C92.6821 15.7733 92.0154 17.0267 91.7754 18.6H103.895C103.682 17.0533 103.029 15.8 101.935 14.84C100.842 13.88 99.4821 13.4 97.8554 13.4ZM125.578 9.4C128.272 9.4 130.432 10.1867 132.058 11.76C133.685 13.3333 134.498 15.6667 134.498 18.76V31H129.498V19.4C129.498 17.5333 129.058 16.1333 128.178 15.2C127.298 14.24 126.045 13.76 124.418 13.76C122.578 13.76 121.125 14.32 120.058 15.44C118.992 16.5333 118.458 18.12 118.458 20.2V31H113.458V9.64H118.218V12.4C119.045 11.4133 120.085 10.6667 121.338 10.16C122.592 9.65333 124.005 9.4 125.578 9.4ZM150.636 31.28C148.476 31.28 146.53 30.8133 144.796 29.88C143.063 28.9467 141.703 27.6533 140.716 26C139.756 24.32 139.276 22.4267 139.276 20.32C139.276 18.2133 139.756 16.3333 140.716 14.68C141.703 13.0267 143.063 11.7333 144.796 10.8C146.53 9.86667 148.476 9.4 150.636 9.4C152.823 9.4 154.783 9.86667 156.516 10.8C158.25 11.7333 159.596 13.0267 160.556 14.68C161.543 16.3333 162.036 18.2133 162.036 20.32C162.036 22.4267 161.543 24.32 160.556 26C159.596 27.6533 158.25 28.9467 156.516 29.88C154.783 30.8133 152.823 31.28 150.636 31.28ZM150.636 27C152.476 27 153.996 26.3867 155.196 25.16C156.396 23.9333 156.996 22.32 156.996 20.32C156.996 18.32 156.396 16.7067 155.196 15.48C153.996 14.2533 152.476 13.64 150.636 13.64C148.796 13.64 147.276 14.2533 146.076 15.48C144.903 16.7067 144.316 18.32 144.316 20.32C144.316 22.32 144.903 23.9333 146.076 25.16C147.276 26.3867 148.796 27 150.636 27ZM179.658 29.84C179.071 30.32 178.351 30.68 177.498 30.92C176.671 31.16 175.791 31.28 174.858 31.28C172.511 31.28 170.698 30.6667 169.418 29.44C168.138 28.2133 167.498 26.4267 167.498 24.08V13.8H163.978V9.8H167.498V4.92H172.498V9.8H178.218V13.8H172.498V23.96C172.498 25 172.751 25.8 173.258 26.36C173.764 26.8933 174.498 27.16 175.458 27.16C176.578 27.16 177.511 26.8667 178.258 26.28L179.658 29.84ZM203.148 20.44C203.148 20.7867 203.121 21.28 203.068 21.92H186.308C186.601 23.4933 187.361 24.7467 188.588 25.68C189.841 26.5867 191.388 27.04 193.228 27.04C195.574 27.04 197.508 26.2667 199.028 24.72L201.708 27.8C200.748 28.9467 199.534 29.8133 198.068 30.4C196.601 30.9867 194.948 31.28 193.108 31.28C190.761 31.28 188.694 30.8133 186.908 29.88C185.121 28.9467 183.734 27.6533 182.748 26C181.788 24.32 181.308 22.4267 181.308 20.32C181.308 18.24 181.774 16.3733 182.708 14.72C183.668 13.04 184.988 11.7333 186.668 10.8C188.348 9.86667 190.241 9.4 192.348 9.4C194.428 9.4 196.281 9.86667 197.908 10.8C199.561 11.7067 200.841 13 201.748 14.68C202.681 16.3333 203.148 18.2533 203.148 20.44ZM192.348 13.4C190.748 13.4 189.388 13.88 188.268 14.84C187.174 15.7733 186.508 17.0267 186.268 18.6H198.388C198.174 17.0533 197.521 15.8 196.428 14.84C195.334 13.88 193.974 13.4 192.348 13.4ZM214.55 31.28C212.817 31.28 211.124 31.0533 209.47 30.6C207.817 30.1467 206.497 29.5733 205.51 28.88L207.43 25.08C208.39 25.72 209.537 26.24 210.87 26.64C212.23 27.0133 213.564 27.2 214.87 27.2C217.857 27.2 219.35 26.4133 219.35 24.84C219.35 24.0933 218.964 23.5733 218.19 23.28C217.444 22.9867 216.23 22.7067 214.55 22.44C212.79 22.1733 211.35 21.8667 210.23 21.52C209.137 21.1733 208.177 20.5733 207.35 19.72C206.55 18.84 206.15 17.6267 206.15 16.08C206.15 14.0533 206.99 12.44 208.67 11.24C210.377 10.0133 212.67 9.4 215.55 9.4C217.017 9.4 218.484 9.57333 219.95 9.92C221.417 10.24 222.617 10.68 223.55 11.24L221.63 15.04C219.817 13.9733 217.777 13.44 215.51 13.44C214.044 13.44 212.924 13.6667 212.15 14.12C211.404 14.5467 211.03 15.12 211.03 15.84C211.03 16.64 211.43 17.2133 212.23 17.56C213.057 17.88 214.324 18.1867 216.03 18.48C217.737 18.7467 219.137 19.0533 220.23 19.4C221.324 19.7467 222.257 20.3333 223.03 21.16C223.83 21.9867 224.23 23.16 224.23 24.68C224.23 26.68 223.364 28.28 221.63 29.48C219.897 30.68 217.537 31.28 214.55 31.28Z" fill="#536FC6"/>
</svg>
