<svg width="359" height="60" viewBox="0 0 359 60" fill="none" xmlns="http://www.w3.org/2000/svg">
<path d="M-498 -5.48212L-460.5 2.21101C-446.4 7.98987 -442 2.21101 -413 17.6334C-385.1 32.9113 -357 29.2995 -329 33.0197C-300.4 36.8843 -272 25.3265 -244 25.3265C-215.6 25.3265 -187 36.8843 -159 31.1054C-130.9 25.3265 -103 2.21101 -74 -5.48212C-46.2 -13.3197 -18 -5.37376 10 2.21101C38.5 9.79582 67 17.7418 95 19.5477C123.2 21.3536 151 17.7418 180 17.6334C207.9 17.7418 236 21.3536 264 17.6334C292.6 13.7688 321 2.21101 349 0.296769C377.3 -1.76196 406 6.18398 434 13.7688C462 21.3536 490 29.2995 518 19.5477C546.7 9.79582 539 10.0486 567 -5.48212C595.4 -21.0128 660 11.9629 688 13.7688C716.1 15.5747 782 -22.7104 811 -5.48212C838.8 11.9629 856.5 17.525 884.5 17.6334C913 17.525 913.9 13.9132 927.9 0.296769L942 -5.48212V59.9998H927.9C913.8 59.9998 886 59.9998 857 59.9998C829.1 59.9998 801 59.9998 773 59.9998C744.4 59.9998 716 59.9998 688 59.9998C659.6 59.9998 631 59.9998 603 59.9998C574.9 59.9998 547 59.9998 518 59.9998C490.2 59.9998 462 59.9998 434 59.9998C405.5 59.9998 377 59.9998 349 59.9998C320.8 59.9998 293 59.9998 264 59.9998C236.1 59.9998 208 59.9998 180 59.9998C151.4 59.9998 123 59.9998 95 59.9998C66.7 59.9998 38 59.9998 10 59.9998C-18 59.9998 -46 59.9998 -74 59.9998C-102.7 59.9998 -131 59.9998 -159 59.9998C-187.4 59.9998 -216 59.9998 -244 59.9998C-272.1 59.9998 -300 59.9998 -329 59.9998C-356.8 59.9998 -385 59.9998 -413 59.9998C-441.5 59.9998 -470 59.9998 -484 59.9998H-498V-5.48212Z" fill="#93A4D5"/>
</svg>
