<svg width="360" height="65" viewBox="0 0 360 65" fill="none" xmlns="http://www.w3.org/2000/svg">
<g clip-path="url(#clip0)">
<path d="M360 -188H0V452H360V-188Z" fill="white"/>
<path d="M-498 136.7L-483.9 127.105C-469.8 117.511 -442 98.322 -413 72.717C-385.1 47.3516 -357 14.9704 -329 8.794C-300.4 2.3777 -272 21.5666 -244 21.5666C-215.6 21.5666 -187 2.3777 -159 11.9721C-130.9 21.5666 -103 59.9443 -74 72.717C-46.2 85.729 -18 72.537 10 59.9443C38.5 47.3516 67 34.1593 95 31.161C123.2 28.1627 151 34.1593 180 34.3392C207.9 34.1593 236 28.1627 264 34.3392C292.6 40.7554 321 59.9443 349 63.1224C377.3 66.54 406 53.3481 434 40.7554C462 28.1627 490 14.9704 518 31.161C546.7 47.3516 575 91.726 603 117.511C631.4 143.296 660 149.292 688 146.294C716.1 143.296 744 130.104 773 101.5C800.8 72.537 829 28.1627 857 27.9828C885.5 28.1627 914 72.537 928 95.144L942 117.511V-36H927.9C913.8 -36 886 -36 857 -36C829.1 -36 801 -36 773 -36C744.4 -36 716 -36 688 -36C659.6 -36 631 -36 603 -36C574.9 -36 547 -36 518 -36C490.2 -36 462 -36 434 -36C405.5 -36 377 -36 349 -36C320.8 -36 293 -36 264 -36C236.1 -36 208 -36 180 -36C151.4 -36 123 -36 95 -36C66.7 -36 38 -36 10 -36C-18 -36 -46 -36 -74 -36C-102.7 -36 -131 -36 -159 -36C-187.4 -36 -216 -36 -244 -36C-272.1 -36 -300 -36 -329 -36C-356.8 -36 -385 -36 -413 -36C-441.5 -36 -470 -36 -484 -36H-498V136.7Z" fill="#7A8ECB" fill-opacity="0.81"/>
</g>
<defs>
<clipPath id="clip0">
<rect width="360" height="91" fill="white"/>
</clipPath>
</defs>
</svg>
