<svg width="391" height="311" viewBox="0 0 391 311" fill="none" xmlns="http://www.w3.org/2000/svg">
<path d="M387 294.867H15.6782V311H387V294.867Z" fill="white"/>
<path opacity="0.5" d="M387 294.867H15.6782V311H387V294.867Z" fill="white"/>
<path d="M108.053 121.341C106.137 121.968 104.256 122.699 102.418 123.529C103.422 122.793 104.427 122.026 105.431 121.25C109.903 117.639 114.159 113.767 118.177 109.654C113.462 114.252 108.427 118.508 103.111 122.389C103.844 121.111 104.488 119.784 105.039 118.417C106.044 115.906 106.225 113.375 103.844 112.034C100.901 110.38 97.3457 112.851 98.2798 117.076C98.8499 119.434 99.9608 121.627 101.524 123.478C98.0546 125.89 94.431 128.069 90.6765 130.002L90.325 130.184C91.1187 128.804 91.8199 127.372 92.4242 125.899C93.3683 123.398 93.6094 120.857 91.2189 119.526C88.276 117.862 84.7205 120.343 85.6646 124.568C86.2251 126.895 87.3111 129.061 88.8385 130.9C84.3287 133.128 79.6683 135.024 75.028 137.081L74.3551 137.384C75.2607 136.407 76.1028 135.373 76.8761 134.288C78.3827 132.07 79.1963 129.67 77.1875 127.804C74.7167 125.505 70.6689 127.078 70.6087 131.434C70.6113 133.839 71.1683 136.21 72.2358 138.362C67.8935 140.398 63.7679 142.871 59.9219 145.743L59.8014 145.844C60.3216 145.016 60.7977 144.161 61.2276 143.282C62.3626 140.852 62.7844 138.352 60.4944 136.829C60.0291 136.508 59.4972 136.297 58.9389 136.211C58.3806 136.126 57.8102 136.169 57.2708 136.337C56.7314 136.505 56.2369 136.793 55.8245 137.181C55.4121 137.568 55.0926 138.044 54.8899 138.573C54.588 138.1 54.1783 137.706 53.6946 137.424C51.3946 136.093 49.1347 137.535 47.1962 139.572C46.694 140.106 46.1918 140.681 45.7599 141.245C47.2553 137.079 49.1349 133.062 51.3745 129.246C53.5072 130.181 55.8069 130.672 58.1341 130.688C62.7141 130.688 64.6426 126.856 62.3927 124.477C60.5647 122.551 57.9935 123.287 55.5628 124.699C54.7625 125.167 53.9879 125.679 53.2427 126.231C55.571 122.711 58.2134 119.41 61.1372 116.37C63.0531 117.925 65.2795 119.05 67.6658 119.667C72.1153 120.766 74.9075 117.529 73.3005 114.676C71.9947 112.356 69.2829 112.447 66.6212 113.224C65.3472 113.606 64.0992 114.071 62.8849 114.615C64.1002 113.425 65.3557 112.286 66.6313 111.157C68.2986 109.725 70.0261 108.343 71.7838 106.992C73.6737 108.506 75.8608 109.602 78.2019 110.209C82.6514 111.308 85.4436 108.071 83.8366 105.217C82.5309 102.898 79.819 102.989 77.1473 103.765C76.5246 103.947 75.8918 104.169 75.2791 104.401C77.5993 102.737 79.9496 101.113 82.3099 99.5001L84.4894 97.9977C86.4534 99.6492 88.759 100.841 91.239 101.487C95.6885 102.586 98.4907 99.3488 96.8837 96.4952C95.5679 94.176 92.8661 94.2668 90.1944 95.0432C89.1431 95.3659 88.1086 95.739 87.0908 96.1625L88.4367 95.1542C89.2603 94.5592 90.0839 93.9542 90.8875 93.319C91.8918 92.5627 92.846 91.7258 93.8203 90.9191C94.3828 90.4754 94.9151 90.0015 95.4474 89.5175C97.4193 91.1866 99.7398 92.3893 102.237 93.0366C106.687 94.1357 109.479 90.8989 107.872 88.0453C106.566 85.7261 103.854 85.8169 101.193 86.5933C99.6999 87.0563 98.2374 87.612 96.8134 88.2571C98.6313 86.5631 100.389 84.7985 102.056 82.9633C102.167 82.8322 102.267 82.7011 102.388 82.5801C103.101 81.7835 103.804 80.9768 104.487 80.1399C105.17 79.303 106.054 78.2039 106.797 77.1956C109.849 73.1736 112.362 68.7664 114.27 64.0871C112.27 68.7108 109.673 73.0503 106.546 76.9939C103.453 80.954 99.9997 84.6166 96.2308 87.9344L95.819 88.2873C96.6752 86.8236 97.4335 85.3044 98.089 83.7397C99.0432 81.239 99.2742 78.698 96.8837 77.367C93.9509 75.7032 90.3853 78.1837 91.3294 82.4087C91.9358 84.9105 93.1466 87.2238 94.8548 89.1444L93.9709 89.9108L92.9665 90.7779C92.384 91.2519 91.7814 91.7056 91.1787 92.1594C90.8573 92.4014 90.546 92.6535 90.1743 92.8955C89.3206 93.5307 88.4568 94.1458 87.583 94.7508L86.3275 95.6079L84.9012 96.6162C85.7349 95.1878 86.4666 93.7018 87.0908 92.1694C88.045 89.6587 88.276 87.1277 85.8956 85.7967C82.9527 84.1329 79.3871 86.6135 80.3312 90.8384C80.9135 93.2653 82.0674 95.5164 83.696 97.4027L82.6916 98.0884L78.7845 100.66L78.0111 101.164L75.8315 102.626L74.8874 103.261C73.883 103.957 72.8786 104.663 71.8742 105.389C72.6813 103.938 73.3861 102.432 73.9835 100.882C74.9878 98.3808 75.1686 95.8398 72.7882 94.5088C69.8453 92.845 66.2898 95.3256 67.2339 99.5505C67.8239 102.01 69.003 104.287 70.6689 106.185C68.9615 107.446 67.2741 108.737 65.647 110.088C64.4517 111.096 63.2766 112.104 62.1215 113.193C62.6247 112.259 63.0741 111.296 63.4674 110.31C64.4116 107.799 64.6526 105.268 62.2621 103.937C59.3193 102.273 55.7637 104.754 56.7078 108.979C57.2684 111.306 58.3543 113.472 59.8817 115.311C56.6287 118.556 53.6987 122.112 51.1334 125.929C51.4247 124.828 51.6461 123.71 51.7963 122.581C52.1177 119.919 51.7361 117.418 49.0945 116.692C45.8403 115.795 42.9878 119.062 44.9263 122.954C46.0414 125.097 47.6367 126.95 49.5867 128.369C47.0566 132.518 44.9436 136.909 43.279 141.477C43.2356 140.522 43.1417 139.569 42.9978 138.624C42.5458 135.972 41.4812 133.683 38.7392 133.733C35.3644 133.804 33.5464 137.767 36.5094 140.933C38.0896 142.587 40.0182 143.865 42.1541 144.674C41.0118 148.201 40.0827 151.794 39.3719 155.433C39.2514 156.008 39.161 156.582 39.0505 157.157C38.93 157.268 38.8095 157.379 38.699 157.5C38.5785 157.006 38.4378 156.492 38.2771 156.018C37.4335 153.477 36.0273 151.369 33.3255 151.853C30.011 152.438 28.8157 156.613 32.2307 159.305C33.9662 160.635 35.9669 161.574 38.0964 162.058C38.0964 162.159 38.1767 162.249 38.2269 162.35C37.8553 165.083 37.5741 167.836 37.4033 170.598C37.2728 172.615 37.2024 174.722 37.1623 176.79C34.2897 176.79 32.2608 179.956 34.2395 183.384C35.0744 184.806 36.1443 186.074 37.4033 187.135C37.6444 191.017 38.026 194.899 38.5383 198.751C38.1321 198.374 37.6351 198.11 37.0961 197.984C36.5572 197.859 35.9949 197.876 35.4648 198.035C33.6569 198.529 32.8434 199.992 32.5521 201.786C31.9087 202.455 31.5487 203.348 31.5477 204.277C30.2018 202.26 28.9262 200.244 27.6908 198.116C29.5767 196.665 31.14 194.834 32.2809 192.742C34.4404 188.708 31.9997 185.169 28.8559 186.026C26.2847 186.732 25.7222 189.354 25.8427 192.167C25.8829 193.234 25.9835 194.298 26.144 195.353L24.8182 193.014C23.7134 190.997 22.8094 188.98 21.7247 186.964C21.4635 186.47 21.2325 185.955 21.0216 185.451C23.1377 184.381 25.0087 182.88 26.5157 181.045C29.3983 177.475 27.6607 173.553 24.4064 173.805C21.7548 174.017 20.7002 176.487 20.2583 179.27C20.086 180.484 19.9787 181.705 19.9369 182.93L18.9927 180.742C16.9819 175.778 15.3271 170.677 14.0411 165.476C16.4362 164.624 18.6117 163.246 20.4089 161.443C23.633 158.165 22.2972 154.102 19.0329 154.021C16.3813 153.961 15.0856 156.31 14.3625 159.063C14.008 160.524 13.743 162.006 13.569 163.5C12.8659 160.515 12.2633 157.49 11.7611 154.425C11.4196 152.549 11.1986 150.643 10.9676 148.748C13.542 148.235 15.9668 147.142 18.0586 145.551C21.6745 142.728 20.881 138.493 17.6468 138.019C15.0254 137.605 13.4384 139.773 12.3738 142.385C11.7504 144.032 11.2272 145.716 10.8069 147.427C10.606 145.228 10.375 143.02 10.2746 140.812C9.97326 136.252 9.97326 131.678 10.2746 127.119C9.81606 131.674 9.65836 136.255 9.8025 140.832C9.8025 142.939 9.98329 145.037 10.1139 147.144C9.54007 145.712 8.86889 144.32 8.10507 142.98C6.73909 140.671 4.91109 138.946 2.38001 139.955C-0.743669 141.245 -1.01486 145.581 2.90229 147.477C5.19976 148.537 7.71994 149.018 10.2444 148.879C10.4252 150.764 10.5859 152.64 10.8672 154.505C11.2589 157.53 11.7611 160.434 12.3537 163.369C11.7109 162.244 10.9963 161.163 10.2143 160.132C8.55704 158.024 6.52816 156.532 4.18792 157.893C1.26512 159.577 1.54636 163.943 5.67443 165.284C8.01033 166.013 10.4844 166.179 12.896 165.768C14.042 171.026 15.5488 176.198 17.4058 181.246L17.9984 182.759C17.467 182.053 16.8934 181.379 16.2809 180.742C14.4227 178.806 12.2633 177.526 10.0235 179.129C7.28146 181.146 8.01467 185.381 12.2331 186.328C14.5613 186.802 16.9665 186.733 19.2639 186.127C19.4748 186.641 19.6858 187.135 19.9369 187.66C20.9413 189.737 21.8352 191.864 22.8898 193.901L23.7636 195.666C23.2413 195.212 22.699 194.778 22.1365 194.375C19.9469 192.832 17.5765 191.985 15.6883 193.972C13.3581 196.422 14.8647 200.496 19.2037 200.627C21.4626 200.68 23.7053 200.232 25.7724 199.316C27.0179 201.575 28.2934 203.803 29.6795 205.991C30.1918 206.828 30.6839 207.655 31.2665 208.482C30.4785 207.758 29.6466 207.085 28.7756 206.465C26.586 204.922 24.2156 204.075 22.3173 206.062C19.9971 208.512 21.5037 212.586 25.8427 212.717C28.3227 212.747 30.7741 212.183 32.994 211.073C33.7172 212.082 34.4604 213.09 35.2238 214.098C33.6067 215.984 34.139 219.14 37.4234 220.582C39.0186 221.249 40.7188 221.628 42.4454 221.701C42.6463 221.863 42.8472 222.024 43.0681 222.175L43.1686 222.256C45.2443 230.04 47.7051 237.71 50.5509 245.266C51.7561 248.483 53.0518 251.669 54.3877 254.835H42.3349V302.55H79.1661V254.795H59.5603C57.883 251.115 56.2659 247.394 54.7593 243.633C52.2985 237.462 50.0688 231.19 48.1303 224.827C48.4601 224.925 48.7955 225.002 49.1347 225.059C49.5808 225.15 50.0382 225.17 50.4906 225.119L49.9683 221.802H49.6168C49.4073 221.772 49.1995 221.732 48.9941 221.681C48.5301 221.547 48.0768 221.379 47.6381 221.177L47.1158 220.935C49.0543 220.257 50.8544 219.232 52.4291 217.91C55.9144 214.885 54.93 210.751 51.6758 210.398C49.0443 210.105 47.5578 212.344 46.6538 214.996C46.3826 215.752 46.1617 216.538 45.9708 217.305C45.78 216.599 45.5892 215.893 45.4084 215.187C44.876 213.1 44.404 210.993 43.9219 208.885C46.0255 208.226 47.9806 207.161 49.6771 205.749C53.1623 202.724 52.168 198.6 48.9238 198.247C46.2822 197.955 44.8057 200.193 43.9018 202.845C43.6306 203.611 43.3996 204.408 43.1987 205.195C42.8974 203.662 42.6061 202.119 42.3349 200.576C42.1441 199.437 41.9633 198.287 41.7925 197.138C41.7323 195.504 41.7021 193.871 41.7222 192.227C41.7222 191.33 41.7222 190.432 41.8026 189.535C43.7718 190.16 45.8371 190.423 47.8993 190.311C52.4793 190.009 54.1667 186.076 51.7762 183.848C49.8277 182.023 47.3067 182.93 44.9664 184.483C43.917 185.199 42.9108 185.977 41.9532 186.812C42.2353 182.975 42.8163 179.165 43.6908 175.418C44.2034 173.211 44.8439 171.036 45.6092 168.904C47.7093 169.631 49.9298 169.943 52.1479 169.822C56.7279 169.529 58.4153 165.597 56.0248 163.358C54.0864 161.543 51.5553 162.441 49.215 164.004C48.3981 164.567 47.6134 165.177 46.8647 165.829C47.7479 163.743 48.7749 161.721 49.9382 159.779C52.2452 155.86 55.1381 152.319 58.5157 149.282C60.2661 150.903 62.3364 152.136 64.5923 152.902C68.9514 154.334 71.9747 151.309 70.6187 148.344C69.4838 145.934 66.8121 145.823 64.06 146.398C62.9995 146.626 61.9531 146.915 60.9263 147.265L60.9966 147.205C64.7445 144.269 68.7834 141.728 73.0494 139.622C74.5545 141.6 76.4659 143.23 78.6539 144.402C82.7318 146.509 86.1969 144.008 85.293 140.862C84.5597 138.301 81.9383 137.767 79.136 137.837C78.0354 137.897 76.9389 138.019 75.8516 138.2C80.3815 136.053 85.0017 134.026 89.4612 131.656H89.5616C91.5582 133.387 93.9269 134.629 96.4819 135.286C100.931 136.395 103.724 133.148 102.117 130.244C100.811 127.925 98.099 128.026 95.4374 128.792C94.6841 129.014 93.9308 129.287 93.1976 129.569C96.1757 127.831 99.0622 125.94 101.845 123.902L102.076 124.154V124.023C104.093 125.769 106.481 127.028 109.057 127.703C113.496 128.803 116.299 125.566 114.692 122.662C113.426 120.474 110.754 120.564 108.053 121.341ZM37.8252 212.707C36.9112 211.638 36.0474 210.519 35.2037 209.389C35.4046 209.208 35.6255 209.006 35.8465 208.784C37.1016 209.177 38.4006 209.411 39.7134 209.48V209.692L40.3261 209.561C40.6475 211.154 40.979 212.737 41.3305 214.32C40.9223 213.784 40.3893 213.356 39.7781 213.075C39.167 212.794 38.4963 212.667 37.8252 212.707ZM41.0995 174.743C40.7881 175.932 40.527 177.122 40.2759 178.322L40.1252 178.11C40.1252 175.65 40.1621 173.197 40.2357 170.75C40.306 169.035 40.4266 167.331 40.5772 165.617C41.4036 166.462 42.3121 167.222 43.2891 167.886C42.439 170.13 41.7114 172.419 41.1095 174.743H41.0995ZM45.2175 163.449C45.2778 163.006 45.328 162.552 45.3481 162.108V161.432C45.7097 161.322 46.0813 161.191 46.4429 161.039C46.0411 161.836 45.6193 162.643 45.2276 163.449H45.2175ZM50.4504 154.929C50.2769 154.53 50.0245 154.17 49.7086 153.872C49.3926 153.574 49.0197 153.344 48.6124 153.194C46.1315 152.186 44.1227 154.001 42.5257 156.32L42.4454 156.431H42.2847C42.1163 156.393 41.9449 156.369 41.7724 156.361C41.7606 156.219 41.7847 156.077 41.8428 155.947C42.4787 152.304 43.3374 148.705 44.414 145.168C46.7197 145.462 49.0609 145.28 51.2941 144.634C52.6739 144.27 53.8739 143.413 54.6689 142.224C55.111 144.257 55.9545 146.18 57.1498 147.88C54.6788 149.99 52.4366 152.356 50.4605 154.939L50.4504 154.929Z" fill="white"/>
<path opacity="0.3" d="M108.053 121.341C106.137 121.968 104.256 122.699 102.418 123.529C103.422 122.793 104.427 122.026 105.431 121.25C109.903 117.639 114.159 113.767 118.177 109.654C113.462 114.252 108.427 118.508 103.111 122.389C103.844 121.111 104.488 119.784 105.039 118.417C106.044 115.906 106.225 113.375 103.844 112.034C100.901 110.38 97.3457 112.851 98.2798 117.076C98.8499 119.434 99.9608 121.627 101.524 123.478C98.0546 125.89 94.431 128.069 90.6765 130.002L90.325 130.184C91.1187 128.804 91.8199 127.372 92.4242 125.899C93.3683 123.398 93.6094 120.857 91.2189 119.526C88.276 117.862 84.7205 120.343 85.6646 124.568C86.2251 126.895 87.3111 129.061 88.8385 130.9C84.3287 133.128 79.6683 135.024 75.028 137.081L74.3551 137.384C75.2607 136.407 76.1028 135.373 76.8761 134.288C78.3827 132.07 79.1963 129.67 77.1875 127.804C74.7167 125.505 70.6689 127.078 70.6087 131.434C70.6113 133.839 71.1683 136.21 72.2358 138.362C67.8935 140.398 63.7679 142.871 59.9219 145.743L59.8014 145.844C60.3216 145.016 60.7977 144.161 61.2276 143.282C62.3626 140.852 62.7844 138.352 60.4944 136.829C60.0291 136.508 59.4972 136.297 58.9389 136.211C58.3806 136.126 57.8102 136.169 57.2708 136.337C56.7314 136.505 56.2369 136.793 55.8245 137.181C55.4121 137.568 55.0926 138.044 54.8899 138.573C54.588 138.1 54.1783 137.706 53.6946 137.424C51.3946 136.093 49.1347 137.535 47.1962 139.572C46.694 140.106 46.1918 140.681 45.7599 141.245C47.2553 137.079 49.1349 133.062 51.3745 129.246C53.5072 130.181 55.8069 130.672 58.1341 130.688C62.7141 130.688 64.6426 126.856 62.3927 124.477C60.5647 122.551 57.9935 123.287 55.5628 124.699C54.7625 125.167 53.9879 125.679 53.2427 126.231C55.571 122.711 58.2134 119.41 61.1372 116.37C63.0531 117.925 65.2795 119.05 67.6658 119.667C72.1153 120.766 74.9075 117.529 73.3005 114.676C71.9947 112.356 69.2829 112.447 66.6212 113.224C65.3472 113.606 64.0992 114.071 62.8849 114.615C64.1002 113.425 65.3557 112.286 66.6313 111.157C68.2986 109.725 70.0261 108.343 71.7838 106.992C73.6737 108.506 75.8608 109.602 78.2019 110.209C82.6514 111.308 85.4436 108.071 83.8366 105.217C82.5309 102.898 79.819 102.989 77.1473 103.765C76.5246 103.947 75.8918 104.169 75.2791 104.401C77.5993 102.737 79.9496 101.113 82.3099 99.5001L84.4894 97.9977C86.4534 99.6492 88.759 100.841 91.239 101.487C95.6885 102.586 98.4907 99.3488 96.8837 96.4952C95.5679 94.176 92.8661 94.2668 90.1944 95.0432C89.1431 95.3659 88.1086 95.739 87.0908 96.1625L88.4367 95.1542C89.2603 94.5592 90.0839 93.9542 90.8875 93.319C91.8918 92.5627 92.846 91.7258 93.8203 90.9191C94.3828 90.4754 94.9151 90.0015 95.4474 89.5175C97.4193 91.1866 99.7398 92.3893 102.237 93.0366C106.687 94.1357 109.479 90.8989 107.872 88.0453C106.566 85.7261 103.854 85.8169 101.193 86.5933C99.6999 87.0563 98.2374 87.612 96.8134 88.2571C98.6313 86.5631 100.389 84.7985 102.056 82.9633C102.167 82.8322 102.267 82.7011 102.388 82.5801C103.101 81.7835 103.804 80.9768 104.487 80.1399C105.17 79.303 106.054 78.2039 106.797 77.1956C109.849 73.1736 112.362 68.7664 114.27 64.0871C112.27 68.7108 109.673 73.0503 106.546 76.9939C103.453 80.954 99.9997 84.6166 96.2308 87.9344L95.819 88.2873C96.6752 86.8236 97.4335 85.3044 98.089 83.7397C99.0432 81.239 99.2742 78.698 96.8837 77.367C93.9509 75.7032 90.3853 78.1837 91.3294 82.4087C91.9358 84.9105 93.1466 87.2238 94.8548 89.1444L93.9709 89.9108L92.9665 90.7779C92.384 91.2519 91.7814 91.7056 91.1787 92.1594C90.8573 92.4014 90.546 92.6535 90.1743 92.8955C89.3206 93.5307 88.4568 94.1458 87.583 94.7508L86.3275 95.6079L84.9012 96.6162C85.7349 95.1878 86.4666 93.7018 87.0908 92.1694C88.045 89.6587 88.276 87.1277 85.8956 85.7967C82.9527 84.1329 79.3871 86.6135 80.3312 90.8384C80.9135 93.2653 82.0674 95.5164 83.696 97.4027L82.6916 98.0884L78.7845 100.66L78.0111 101.164L75.8315 102.626L74.8874 103.261C73.883 103.957 72.8786 104.663 71.8742 105.389C72.6813 103.938 73.3861 102.432 73.9835 100.882C74.9878 98.3808 75.1686 95.8398 72.7882 94.5088C69.8453 92.845 66.2898 95.3256 67.2339 99.5505C67.8239 102.01 69.003 104.287 70.6689 106.185C68.9615 107.446 67.2741 108.737 65.647 110.088C64.4517 111.096 63.2766 112.104 62.1215 113.193C62.6247 112.259 63.0741 111.296 63.4674 110.31C64.4116 107.799 64.6526 105.268 62.2621 103.937C59.3193 102.273 55.7637 104.754 56.7078 108.979C57.2684 111.306 58.3543 113.472 59.8817 115.311C56.6287 118.556 53.6987 122.112 51.1334 125.929C51.4247 124.828 51.6461 123.71 51.7963 122.581C52.1177 119.919 51.7361 117.418 49.0945 116.692C45.8403 115.795 42.9878 119.062 44.9263 122.954C46.0414 125.097 47.6367 126.95 49.5867 128.369C47.0566 132.518 44.9436 136.909 43.279 141.477C43.2356 140.522 43.1417 139.569 42.9978 138.624C42.5458 135.972 41.4812 133.683 38.7392 133.733C35.3644 133.804 33.5464 137.767 36.5094 140.933C38.0896 142.587 40.0182 143.865 42.1541 144.674C41.0118 148.201 40.0827 151.794 39.3719 155.433C39.2514 156.008 39.161 156.582 39.0505 157.157C38.93 157.268 38.8095 157.379 38.699 157.5C38.5785 157.006 38.4378 156.492 38.2771 156.018C37.4335 153.477 36.0273 151.369 33.3255 151.853C30.011 152.438 28.8157 156.613 32.2307 159.305C33.9662 160.635 35.9669 161.574 38.0964 162.058C38.0964 162.159 38.1767 162.249 38.2269 162.35C37.8553 165.083 37.5741 167.836 37.4033 170.598C37.2728 172.615 37.2024 174.722 37.1623 176.79C34.2897 176.79 32.2608 179.956 34.2395 183.384C35.0744 184.806 36.1443 186.074 37.4033 187.135C37.6444 191.017 38.026 194.899 38.5383 198.751C38.1321 198.374 37.6351 198.11 37.0961 197.984C36.5572 197.859 35.9949 197.876 35.4648 198.035C33.6569 198.529 32.8434 199.992 32.5521 201.786C31.9087 202.455 31.5487 203.348 31.5477 204.277C30.2018 202.26 28.9262 200.244 27.6908 198.116C29.5767 196.665 31.14 194.834 32.2809 192.742C34.4404 188.708 31.9997 185.169 28.8559 186.026C26.2847 186.732 25.7222 189.354 25.8427 192.167C25.8829 193.234 25.9835 194.298 26.144 195.353L24.8182 193.014C23.7134 190.997 22.8094 188.98 21.7247 186.964C21.4635 186.47 21.2325 185.955 21.0216 185.451C23.1377 184.381 25.0087 182.88 26.5157 181.045C29.3983 177.475 27.6607 173.553 24.4064 173.805C21.7548 174.017 20.7002 176.487 20.2583 179.27C20.086 180.484 19.9787 181.705 19.9369 182.93L18.9927 180.742C16.9819 175.778 15.3271 170.677 14.0411 165.476C16.4362 164.624 18.6117 163.246 20.4089 161.443C23.633 158.165 22.2972 154.102 19.0329 154.021C16.3813 153.961 15.0856 156.31 14.3625 159.063C14.008 160.524 13.743 162.006 13.569 163.5C12.8659 160.515 12.2633 157.49 11.7611 154.425C11.4196 152.549 11.1986 150.643 10.9676 148.748C13.542 148.235 15.9668 147.142 18.0586 145.551C21.6745 142.728 20.881 138.493 17.6468 138.019C15.0254 137.605 13.4384 139.773 12.3738 142.385C11.7504 144.032 11.2272 145.716 10.8069 147.427C10.606 145.228 10.375 143.02 10.2746 140.812C9.97326 136.252 9.97326 131.678 10.2746 127.119C9.81606 131.674 9.65836 136.255 9.8025 140.832C9.8025 142.939 9.98329 145.037 10.1139 147.144C9.54007 145.712 8.86889 144.32 8.10507 142.98C6.73909 140.671 4.91109 138.946 2.38001 139.955C-0.743669 141.245 -1.01486 145.581 2.90229 147.477C5.19976 148.537 7.71994 149.018 10.2444 148.879C10.4252 150.764 10.5859 152.64 10.8672 154.505C11.2589 157.53 11.7611 160.434 12.3537 163.369C11.7109 162.244 10.9963 161.163 10.2143 160.132C8.55704 158.024 6.52816 156.532 4.18792 157.893C1.26512 159.577 1.54636 163.943 5.67443 165.284C8.01033 166.013 10.4844 166.179 12.896 165.768C14.042 171.026 15.5488 176.198 17.4058 181.246L17.9984 182.759C17.467 182.053 16.8934 181.379 16.2809 180.742C14.4227 178.806 12.2633 177.526 10.0235 179.129C7.28146 181.146 8.01467 185.381 12.2331 186.328C14.5613 186.802 16.9665 186.733 19.2639 186.127C19.4748 186.641 19.6858 187.135 19.9369 187.66C20.9413 189.737 21.8352 191.864 22.8898 193.901L23.7636 195.666C23.2413 195.212 22.699 194.778 22.1365 194.375C19.9469 192.832 17.5765 191.985 15.6883 193.972C13.3581 196.422 14.8647 200.496 19.2037 200.627C21.4626 200.68 23.7053 200.232 25.7724 199.316C27.0179 201.575 28.2934 203.803 29.6795 205.991C30.1918 206.828 30.6839 207.655 31.2665 208.482C30.4785 207.758 29.6466 207.085 28.7756 206.465C26.586 204.922 24.2156 204.075 22.3173 206.062C19.9971 208.512 21.5037 212.586 25.8427 212.717C28.3227 212.747 30.7741 212.183 32.994 211.073C33.7172 212.082 34.4604 213.09 35.2238 214.098C33.6067 215.984 34.139 219.14 37.4234 220.582C39.0186 221.249 40.7188 221.628 42.4454 221.701C42.6463 221.863 42.8472 222.024 43.0681 222.175L43.1686 222.256C45.2443 230.04 47.7051 237.71 50.5509 245.266C51.7561 248.483 53.0518 251.669 54.3877 254.835H42.3349V302.55H79.1661V254.795H59.5603C57.883 251.115 56.2659 247.394 54.7593 243.633C52.2985 237.462 50.0688 231.19 48.1303 224.827C48.4601 224.925 48.7955 225.002 49.1347 225.059C49.5808 225.15 50.0382 225.17 50.4906 225.119L49.9683 221.802H49.6168C49.4073 221.772 49.1995 221.732 48.9941 221.681C48.5301 221.547 48.0768 221.379 47.6381 221.177L47.1158 220.935C49.0543 220.257 50.8544 219.232 52.4291 217.91C55.9144 214.885 54.93 210.751 51.6758 210.398C49.0443 210.105 47.5578 212.344 46.6538 214.996C46.3826 215.752 46.1617 216.538 45.9708 217.305C45.78 216.599 45.5892 215.893 45.4084 215.187C44.876 213.1 44.404 210.993 43.9219 208.885C46.0255 208.226 47.9806 207.161 49.6771 205.749C53.1623 202.724 52.168 198.6 48.9238 198.247C46.2822 197.955 44.8057 200.193 43.9018 202.845C43.6306 203.611 43.3996 204.408 43.1987 205.195C42.8974 203.662 42.6061 202.119 42.3349 200.576C42.1441 199.437 41.9633 198.287 41.7925 197.138C41.7323 195.504 41.7021 193.871 41.7222 192.227C41.7222 191.33 41.7222 190.432 41.8026 189.535C43.7718 190.16 45.8371 190.423 47.8993 190.311C52.4793 190.009 54.1667 186.076 51.7762 183.848C49.8277 182.023 47.3067 182.93 44.9664 184.483C43.917 185.199 42.9108 185.977 41.9532 186.812C42.2353 182.975 42.8163 179.165 43.6908 175.418C44.2034 173.211 44.8439 171.036 45.6092 168.904C47.7093 169.631 49.9298 169.943 52.1479 169.822C56.7279 169.529 58.4153 165.597 56.0248 163.358C54.0864 161.543 51.5553 162.441 49.215 164.004C48.3981 164.567 47.6134 165.177 46.8647 165.829C47.7479 163.743 48.7749 161.721 49.9382 159.779C52.2452 155.86 55.1381 152.319 58.5157 149.282C60.2661 150.903 62.3364 152.136 64.5923 152.902C68.9514 154.334 71.9747 151.309 70.6187 148.344C69.4838 145.934 66.8121 145.823 64.06 146.398C62.9995 146.626 61.9531 146.915 60.9263 147.265L60.9966 147.205C64.7445 144.269 68.7834 141.728 73.0494 139.622C74.5545 141.6 76.4659 143.23 78.6539 144.402C82.7318 146.509 86.1969 144.008 85.293 140.862C84.5597 138.301 81.9383 137.767 79.136 137.837C78.0354 137.897 76.9389 138.019 75.8516 138.2C80.3815 136.053 85.0017 134.026 89.4612 131.656H89.5616C91.5582 133.387 93.9269 134.629 96.4819 135.286C100.931 136.395 103.724 133.148 102.117 130.244C100.811 127.925 98.099 128.026 95.4374 128.792C94.6841 129.014 93.9308 129.287 93.1976 129.569C96.1757 127.831 99.0622 125.94 101.845 123.902L102.076 124.154V124.023C104.093 125.769 106.481 127.028 109.057 127.703C113.496 128.803 116.299 125.566 114.692 122.662C113.426 120.474 110.754 120.564 108.053 121.341ZM37.8252 212.707C36.9112 211.638 36.0474 210.519 35.2037 209.389C35.4046 209.208 35.6255 209.006 35.8465 208.784C37.1016 209.177 38.4006 209.411 39.7134 209.48V209.692L40.3261 209.561C40.6475 211.154 40.979 212.737 41.3305 214.32C40.9223 213.784 40.3893 213.356 39.7781 213.075C39.167 212.794 38.4963 212.667 37.8252 212.707ZM41.0995 174.743C40.7881 175.932 40.527 177.122 40.2759 178.322L40.1252 178.11C40.1252 175.65 40.1621 173.197 40.2357 170.75C40.306 169.035 40.4266 167.331 40.5772 165.617C41.4036 166.462 42.3121 167.222 43.2891 167.886C42.439 170.13 41.7114 172.419 41.1095 174.743H41.0995ZM45.2175 163.449C45.2778 163.006 45.328 162.552 45.3481 162.108V161.432C45.7097 161.322 46.0813 161.191 46.4429 161.039C46.0411 161.836 45.6193 162.643 45.2276 163.449H45.2175ZM50.4504 154.929C50.2769 154.53 50.0245 154.17 49.7086 153.872C49.3926 153.574 49.0197 153.344 48.6124 153.194C46.1315 152.186 44.1227 154.001 42.5257 156.32L42.4454 156.431H42.2847C42.1163 156.393 41.9449 156.369 41.7724 156.361C41.7606 156.219 41.7847 156.077 41.8428 155.947C42.4787 152.304 43.3374 148.705 44.414 145.168C46.7197 145.462 49.0609 145.28 51.2941 144.634C52.6739 144.27 53.8739 143.413 54.6689 142.224C55.111 144.257 55.9545 146.18 57.1498 147.88C54.6788 149.99 52.4366 152.356 50.4605 154.939L50.4504 154.929Z" fill="white"/>
<path d="M355.707 258.556C355.707 258.556 350.845 247.656 349.68 246.537C348.515 245.417 339.204 242.029 336.623 233.428C334.042 224.827 329.14 201.867 341.494 203.37C353.848 204.872 350.845 228.921 355.335 228.165C359.825 227.408 351.599 189.101 359.453 183.798C367.307 178.494 380.033 183.424 378.536 203.712C377.04 224 374.047 235.636 376.668 234.517C379.29 233.398 386.773 229.254 386.773 237.895C386.773 246.537 379.661 252.546 375.543 252.919C371.425 253.293 369.517 253.676 369.517 253.676V259.302L355.707 258.556Z" fill="#2E353A" stroke="#2E353A" stroke-linecap="round" stroke-linejoin="round"/>
<path d="M351.749 237.431C348.927 234.749 346.336 232.148 345.141 229.758C342.77 224.988 340.982 211.608 340.982 211.608" stroke="white" stroke-width="0.5" stroke-linecap="round" stroke-linejoin="round"/>
<path d="M336.774 218.142C338.642 225.956 338.903 231.845 344.548 238.702C347.561 242.413 355.536 245.559 356.43 248.836C357.23 252.779 357.83 256.76 358.228 260.764L362.687 261.067C362.687 261.067 363.591 253.303 361.04 247.767" stroke="white" stroke-width="0.5" stroke-linecap="round" stroke-linejoin="round"/>
<path d="M338.019 205.608C338.019 205.608 334.685 208.179 335.87 214.512" stroke="white" stroke-width="0.5" stroke-linecap="round" stroke-linejoin="round"/>
<path d="M359.382 228.669L357.615 231.543" stroke="white" stroke-width="0.5" stroke-linecap="round" stroke-linejoin="round"/>
<path d="M359.996 227.671L359.383 228.67" stroke="white" stroke-width="0.5" stroke-linecap="round" stroke-linejoin="round"/>
<path d="M365.931 184.735C365.931 184.735 359.102 184.443 359.102 190.997C359.102 196.533 360.789 215.429 360.427 224.071" stroke="white" stroke-width="0.5" stroke-linecap="round" stroke-linejoin="round"/>
<path d="M371.285 238.43C371.124 240.678 371.024 242.271 371.024 242.876C371.024 246.153 379.33 233.63 383.197 233.337C383.197 233.337 387.054 233.035 385.567 240.194C385.027 242.852 383.774 245.311 381.944 247.306C380.113 249.302 377.776 250.758 375.182 251.518C371.908 252.415 369.236 250.923 368.643 252.415C368.17 254.17 367.871 255.966 367.749 257.78" stroke="white" stroke-width="0.5" stroke-linecap="round" stroke-linejoin="round"/>
<path d="M373.223 190.957C373.74 193.119 373.983 195.338 373.946 197.561C373.946 204.539 372.621 220.995 371.737 232.107" stroke="white" stroke-width="0.5" stroke-linecap="round" stroke-linejoin="round"/>
<path d="M369.788 185.34C370.68 185.853 371.403 186.618 371.867 187.539" stroke="white" stroke-width="0.5" stroke-linecap="round" stroke-linejoin="round"/>
<path d="M364.957 236.615L364.746 240.789" stroke="white" stroke-width="0.5" stroke-linecap="round" stroke-linejoin="round"/>
<path d="M366.524 188.91C366.524 188.91 364.746 189.505 365.339 195.767C365.831 200.939 365.339 224.424 365.108 232.44" stroke="white" stroke-width="0.5" stroke-linecap="round" stroke-linejoin="round"/>
<path d="M385.236 235.122C382.689 239.908 378.609 243.691 373.655 245.861C365.62 249.138 365.339 247.646 365.339 250.903C365.339 254.16 365.037 260.149 365.037 260.149" stroke="white" stroke-width="0.5" stroke-linecap="round" stroke-linejoin="round"/>
<path d="M374.097 302.52H348.143L342.589 264.778H379.651L374.097 302.52Z" fill="white" stroke="#2E353A" stroke-linecap="round" stroke-linejoin="round"/>
<path d="M382.835 258.828H339.405V268.932H382.835V258.828Z" fill="white" stroke="#2E353A" stroke-linecap="round" stroke-linejoin="round"/>
<path d="M231.593 277.11V256.62H171.49V277.11C171.481 283.784 169.23 290.26 165.102 295.492L162.471 298.819H240.613L237.981 295.492C233.854 290.26 231.603 283.784 231.593 277.11Z" fill="white" stroke="#2E353A" stroke-linecap="round" stroke-linejoin="round"/>
<path d="M167.794 291.458H235.29C232.866 287.067 231.595 282.13 231.593 277.11V256.62H171.49V277.11C171.489 282.13 170.217 287.067 167.794 291.458Z" fill="white"/>
<path d="M313.803 81.1886H89.2704C84.5664 81.1886 80.7531 85.0169 80.7531 89.7393V254.533C80.7531 259.255 84.5664 263.084 89.2704 263.084H313.803C318.507 263.084 322.321 259.255 322.321 254.533V89.7393C322.321 85.0169 318.507 81.1886 313.803 81.1886Z" fill="#2E353A" stroke="#2E353A" stroke-linecap="round" stroke-linejoin="round"/>
<path d="M80.7532 234.81H322.331V254.523C322.331 256.79 321.433 258.965 319.836 260.569C318.239 262.173 316.072 263.073 313.813 263.073H89.2805C87.0216 263.073 84.8552 262.173 83.2579 260.569C81.6606 258.965 80.7632 256.79 80.7632 254.523V234.81H80.7532Z" fill="white" stroke="#2E353A" stroke-linecap="round" stroke-linejoin="round"/>
<path d="M310.178 92.5123H92.9064V221.016H310.178V92.5123Z" fill="white" stroke="#2E353A" stroke-linecap="round" stroke-linejoin="round"/>
<path d="M206.001 248.947C206.001 248.061 205.74 247.195 205.25 246.459C204.76 245.723 204.063 245.149 203.249 244.81C202.434 244.471 201.537 244.383 200.672 244.556C199.807 244.728 199.012 245.155 198.389 245.781C197.765 246.407 197.34 247.205 197.168 248.073C196.996 248.942 197.084 249.842 197.422 250.66C197.759 251.478 198.331 252.177 199.064 252.669C199.798 253.161 200.66 253.424 201.542 253.424C202.725 253.424 203.859 252.952 204.695 252.112C205.532 251.273 206.001 250.134 206.001 248.947Z" fill="#2E353A" stroke="#2E353A" stroke-linecap="round" stroke-linejoin="round"/>
<path d="M240.623 298.86H162.471V302.52H240.623V298.86Z" fill="white" stroke="#2E353A" stroke-linecap="round" stroke-linejoin="round"/>
<path d="M308.139 101.567H94.6139V112.83H308.139V101.567Z" fill="white" stroke="#2E353A" stroke-linecap="round" stroke-linejoin="round"/>
<path d="M129.848 112.83L127.287 105.873H94.6139V112.83V122.057V215.54H308.139V112.83H129.848Z" fill="white" stroke="#2E353A" stroke-linecap="round" stroke-linejoin="round"/>
<path d="M152.086 163.762H252.204" stroke="#2E353A" stroke-width="2" stroke-linecap="round" stroke-linejoin="round"/>
<path d="M152.086 173.644H252.204" stroke="#2E353A" stroke-width="2" stroke-linecap="round" stroke-linejoin="round"/>
<path d="M152.086 183.525H252.204" stroke="#2E353A" stroke-width="2" stroke-linecap="round" stroke-linejoin="round"/>
<path d="M152.086 193.417H252.204" stroke="#2E353A" stroke-width="2" stroke-linecap="round" stroke-linejoin="round"/>
<path d="M246.911 137.414H156.184C155.25 137.415 154.325 137.232 153.461 136.874C152.598 136.517 151.814 135.992 151.152 135.33C150.491 134.668 149.966 133.882 149.608 133.016C149.249 132.15 149.064 131.222 149.062 130.285C149.061 129.347 149.244 128.419 149.6 127.552C149.956 126.685 150.479 125.898 151.138 125.234C151.797 124.57 152.581 124.043 153.443 123.683C154.305 123.323 155.23 123.137 156.163 123.136H246.911C247.846 123.134 248.773 123.318 249.637 123.677C250.502 124.036 251.288 124.563 251.949 125.227C252.611 125.891 253.135 126.679 253.493 127.547C253.85 128.415 254.033 129.346 254.032 130.285C254.031 131.222 253.845 132.15 253.487 133.016C253.128 133.882 252.603 134.668 251.942 135.33C251.281 135.992 250.496 136.517 249.633 136.874C248.77 137.232 247.845 137.415 246.911 137.414Z" fill="white" stroke="#2E353A" stroke-linecap="round" stroke-linejoin="round"/>
<path d="M246.911 137.414H234.516V123.116H246.911C247.846 123.114 248.773 123.298 249.637 123.657C250.502 124.016 251.287 124.542 251.949 125.206C252.61 125.871 253.135 126.659 253.492 127.527C253.85 128.395 254.033 129.325 254.032 130.265C254.033 131.204 253.85 132.134 253.492 133.002C253.135 133.87 252.61 134.659 251.949 135.323C251.287 135.987 250.502 136.514 249.637 136.872C248.773 137.231 247.846 137.415 246.911 137.414Z" fill="#2E353A" stroke="#2E353A" stroke-linecap="round" stroke-linejoin="round"/>
<path d="M244.149 124.931C243.559 124.375 242.818 124.009 242.02 123.876C241.222 123.744 240.403 123.852 239.666 124.187C238.93 124.522 238.309 125.069 237.882 125.759C237.455 126.448 237.241 127.249 237.268 128.061C237.295 128.872 237.561 129.658 238.032 130.317C238.503 130.977 239.159 131.482 239.916 131.767C240.673 132.053 241.497 132.106 242.285 131.921C243.072 131.737 243.787 131.321 244.34 130.728C244.708 130.337 244.995 129.877 245.185 129.374C245.375 128.871 245.464 128.335 245.448 127.797C245.431 127.259 245.308 126.73 245.087 126.24C244.866 125.749 244.55 125.308 244.159 124.941L244.149 124.931ZM243.747 130.174C243.303 130.647 242.73 130.977 242.1 131.123C241.47 131.269 240.81 131.224 240.205 130.995C239.6 130.765 239.077 130.36 238.7 129.832C238.324 129.304 238.112 128.676 238.091 128.027C238.07 127.377 238.241 126.737 238.582 126.185C238.924 125.633 239.42 125.196 240.009 124.927C240.598 124.658 241.253 124.571 241.891 124.676C242.53 124.78 243.123 125.073 243.596 125.515C244.231 126.113 244.604 126.94 244.632 127.813C244.66 128.687 244.342 129.536 243.747 130.174Z" fill="white"/>
<path d="M247.222 132.221C247.132 132.133 247.019 132.073 246.896 132.048C246.773 132.023 246.646 132.034 246.529 132.08L245.052 130.688C244.977 130.614 244.876 130.573 244.771 130.573C244.666 130.573 244.565 130.614 244.49 130.688L244.359 130.829C244.287 130.908 244.247 131.01 244.247 131.117C244.247 131.223 244.287 131.326 244.359 131.404L245.816 132.775C245.773 132.9 245.766 133.035 245.796 133.163C245.826 133.292 245.892 133.409 245.987 133.501L248.498 135.972C248.663 136.137 248.887 136.229 249.12 136.229C249.354 136.229 249.577 136.137 249.743 135.972C249.907 135.806 250 135.581 250 135.347C250 135.112 249.907 134.888 249.743 134.722L247.222 132.221Z" fill="white"/>
<path d="M273.155 180.541C273.449 181.271 273.885 181.935 274.439 182.493C274.993 183.05 275.653 183.491 276.38 183.787C277.514 184.251 279.031 184.15 280.779 185.139C284.726 187.367 294.579 185.381 301.72 186.147C308.862 186.913 318.484 178.978 318.484 178.978L346.818 180.541V152.307C346.818 152.307 317.248 153.547 310.84 151.067C304.432 148.586 297.291 143.403 294.087 143.645C290.883 143.887 264.518 146.862 264.518 146.862L273.145 180.541H273.155Z" fill="white" stroke="#2E353A" stroke-linecap="round" stroke-linejoin="round"/>
<path d="M265.823 66.6987C259.973 67.3488 254.446 69.726 249.942 73.5296C245.437 77.3331 242.157 82.3923 240.517 88.0673C238.876 93.7423 238.949 99.7783 240.725 105.412C242.502 111.045 245.902 116.024 250.497 119.717C255.092 123.41 260.674 125.653 266.538 126.161C272.403 126.669 278.285 125.42 283.442 122.572C288.599 119.724 292.799 115.404 295.511 110.159C298.223 104.915 299.325 98.9805 298.677 93.1072C298.25 89.2064 297.06 85.4286 295.177 81.9897C293.294 78.5507 290.755 75.5182 287.703 73.0654C284.652 70.6127 281.149 68.788 277.395 67.6955C273.64 66.603 269.708 66.2643 265.823 66.6987ZM271.729 120.222C267.036 120.745 262.294 119.86 258.102 117.677C253.91 115.495 250.457 112.114 248.18 107.961C245.902 103.809 244.902 99.0713 245.306 94.3483C245.71 89.6252 247.5 85.1285 250.45 81.4269C253.4 77.7252 257.377 74.9848 261.878 73.5522C266.379 72.1196 271.202 72.0591 275.738 73.3784C280.273 74.6977 284.317 77.3376 287.358 80.9641C290.399 84.5907 292.3 89.0411 292.822 93.7525C293.168 96.8809 292.897 100.047 292.024 103.07C291.152 106.094 289.695 108.915 287.736 111.373C285.777 113.831 283.356 115.877 280.609 117.395C277.863 118.914 274.845 119.874 271.729 120.222Z" fill="white" stroke="#2E353A" stroke-linecap="round" stroke-linejoin="round"/>
<path d="M265.663 64.9946C259.812 65.6447 254.285 68.0219 249.781 71.8255C245.276 75.6291 241.996 80.6882 240.356 86.3633C238.715 92.0383 238.788 98.0742 240.564 103.708C242.341 109.341 245.742 114.32 250.336 118.013C254.931 121.706 260.513 123.949 266.378 124.457C272.242 124.965 278.125 123.716 283.282 120.868C288.439 118.02 292.639 113.7 295.351 108.455C298.062 103.211 299.164 97.2764 298.516 91.4031C297.645 83.5284 293.696 76.3232 287.535 71.3712C281.374 66.4191 273.507 64.1256 265.663 64.9946ZM271.569 118.517C266.876 119.041 262.133 118.155 257.941 115.973C253.75 113.791 250.297 110.41 248.019 106.257C245.741 102.105 244.741 97.3673 245.146 92.6442C245.55 87.9211 247.34 83.4245 250.29 79.7228C253.239 76.0211 257.216 73.2807 261.717 71.8481C266.218 70.4155 271.042 70.355 275.577 71.6743C280.112 72.9936 284.156 75.6335 287.197 79.2601C290.238 82.8866 292.139 87.337 292.661 92.0484C293.007 95.1768 292.736 98.343 291.864 101.366C290.991 104.39 289.534 107.211 287.575 109.669C285.617 112.126 283.195 114.173 280.449 115.691C277.702 117.21 274.685 118.17 271.569 118.517Z" fill="white" stroke="#2E353A" stroke-linecap="round" stroke-linejoin="round"/>
<path d="M273.191 124.941L271.784 125.097C270.196 125.274 269.051 126.709 269.227 128.303L271.512 149.009C271.687 150.603 273.117 151.752 274.705 151.576L276.113 151.419C277.7 151.243 278.845 149.807 278.669 148.213L276.385 127.508C276.209 125.913 274.779 124.764 273.191 124.941Z" fill="white" stroke="#2E353A" stroke-linecap="round" stroke-linejoin="round"/>
<path d="M272.734 142.224L275.747 141.901C277.043 141.762 278.341 142.141 279.36 142.956C280.379 143.772 281.037 144.958 281.191 146.257L285.7 187.206C285.884 188.88 285.397 190.558 284.348 191.872C283.299 193.187 281.773 194.029 280.106 194.214H279.905C279.079 194.306 278.243 194.234 277.445 194.002C276.647 193.769 275.902 193.381 275.254 192.859C274.606 192.338 274.066 191.693 273.666 190.961C273.267 190.23 273.014 189.427 272.924 188.597L268.415 147.659C268.342 147.01 268.398 146.354 268.578 145.727C268.758 145.1 269.06 144.516 269.466 144.006C269.872 143.497 270.374 143.072 270.943 142.758C271.512 142.443 272.138 142.245 272.784 142.173L272.734 142.224Z" fill="#2E353A" stroke="#2E353A" stroke-linecap="round" stroke-linejoin="round"/>
<path d="M277.113 176.346C277.113 176.346 269.972 176.608 268.967 177.848C267.963 179.089 268.143 183.404 270.082 183.898C275.024 185.199 285.53 184.443 285.941 183.556C286.353 182.668 287.197 177.505 285.027 176.951C282.408 176.548 279.762 176.346 277.113 176.346Z" fill="white" stroke="#2E353A" stroke-linecap="round" stroke-linejoin="round"/>
<path d="M275.054 166.343C275.054 166.343 266.747 166.031 265.452 167.533C264.156 169.035 263.905 174.652 266.094 175.499C271.679 177.647 284.244 176.81 284.816 175.701C285.389 174.591 286.634 168.834 284.173 167.906C281.713 166.978 275.054 166.343 275.054 166.343Z" fill="white" stroke="#2E353A" stroke-linecap="round" stroke-linejoin="round"/>
<path d="M273.858 155.05C273.858 155.05 264.98 154.707 263.593 156.32C262.207 157.934 261.936 163.923 264.276 164.831C270.303 167.13 283.36 167.13 283.973 165.94C284.585 164.75 286.233 157.712 283.601 156.713C280.97 155.715 273.858 155.05 273.858 155.05Z" fill="white" stroke="#2E353A" stroke-linecap="round" stroke-linejoin="round"/>
<path d="M268.736 144.482C268.736 144.482 259.857 144.149 258.471 145.753C257.085 147.356 256.754 153.537 259.154 154.263C261.555 154.989 278.238 156.562 278.85 155.382C279.463 154.203 281.11 147.144 278.479 146.146C275.847 145.148 268.736 144.482 268.736 144.482Z" fill="white" stroke="#2E353A" stroke-linecap="round" stroke-linejoin="round"/>
<path d="M297.813 174.138C296.22 173.698 294.709 172.996 293.344 172.06C286.203 167.109 286.444 155.735 286.444 155.735L284.726 155.241C283.307 154.699 281.977 153.948 280.779 153.013C281.354 155.362 281.691 157.764 281.783 160.182C281.757 161.511 281.24 162.782 280.333 163.75C279.425 164.717 278.191 165.311 276.872 165.415C274.652 165.668 273.668 165.91 272.924 162.945C272.181 159.98 268.495 148.102 268.244 146.368C268.023 144.795 270.655 141.992 274.843 141.326C281.281 141.851 287.629 143.655 294.117 143.655C296.375 143.868 298.538 144.667 300.395 145.975" fill="white"/>
<path d="M297.813 174.138C296.22 173.698 294.709 172.996 293.344 172.06C286.203 167.109 286.444 155.735 286.444 155.735L284.726 155.241C283.307 154.699 281.977 153.948 280.779 153.013C281.354 155.362 281.691 157.764 281.783 160.182C281.757 161.511 281.24 162.782 280.333 163.75C279.425 164.717 278.191 165.311 276.872 165.415C274.652 165.668 273.668 165.91 272.924 162.945C272.181 159.98 268.495 148.102 268.244 146.368C268.023 144.795 270.655 141.992 274.843 141.326C281.281 141.851 287.629 143.655 294.117 143.655C296.375 143.868 298.538 144.667 300.395 145.975" stroke="#2E353A" stroke-linecap="round" stroke-linejoin="round"/>
<path d="M304.603 174.763C303.82 174.802 303.036 174.802 302.253 174.763H304.603Z" fill="white"/>
<path d="M304.603 174.763C303.82 174.802 303.036 174.802 302.253 174.763" stroke="#2E353A" stroke-linecap="round" stroke-linejoin="round"/>
<path d="M309.856 173.785C308.151 174.327 306.387 174.665 304.603 174.793L309.856 173.785Z" fill="white"/>
<path d="M309.856 173.785C308.151 174.327 306.387 174.665 304.603 174.793" stroke="#2E353A" stroke-linecap="round" stroke-linejoin="round"/>
<path d="M318.725 170.578H327.593" stroke="#2E353A" stroke-linecap="round" stroke-linejoin="round"/>
<path d="M319.468 173.049H323.164" stroke="#2E353A" stroke-linecap="round" stroke-linejoin="round"/>
<path d="M286.444 155.735C286.444 155.735 291.345 155.735 294.559 152.801" stroke="#2E353A" stroke-linecap="round" stroke-linejoin="round"/>
<path d="M280.669 152.69C280.528 151.347 280.248 150.023 279.834 148.737" stroke="#2E353A" stroke-linecap="round" stroke-linejoin="round"/>
<path d="M272.854 161.644C272.854 161.644 271.92 159.043 273.055 158.105C274.19 157.167 277.203 155.816 277.725 156.855C278.248 157.893 279.383 162.683 279.071 163.621L278.76 164.558" stroke="#2E353A" stroke-width="0.5" stroke-linecap="round" stroke-linejoin="round"/>
<path d="M383 193H324V151H383" fill="white"/>
<path d="M383 193H324V151H383" stroke="#2E353A" stroke-linecap="round" stroke-linejoin="round"/>
<path d="M330.306 190.392C331.36 190.392 332.214 189.534 332.214 188.476C332.214 187.418 331.36 186.56 330.306 186.56C329.252 186.56 328.397 187.418 328.397 188.476C328.397 189.534 329.252 190.392 330.306 190.392Z" fill="white" stroke="#2E353A" stroke-linecap="round" stroke-linejoin="round"/>
<path d="M195.345 111.378C196.072 111.084 196.734 110.646 197.289 110.09C197.845 109.534 198.283 108.871 198.579 108.142C199.041 107.002 198.931 105.49 199.925 103.725C202.135 99.7723 200.166 89.8805 200.929 82.7011C201.693 75.5217 193.778 65.8819 193.778 65.8819L195.315 37.4366H167.192C167.192 37.4366 168.417 67.1222 165.956 73.5453C163.495 79.9685 158.323 87.158 158.564 90.3746C158.805 93.5912 161.788 120.04 161.788 120.04L195.295 111.378H195.345Z" fill="white" stroke="#2E353A" stroke-linecap="round" stroke-linejoin="round"/>
<path d="M82.0187 118.719C82.6619 124.593 85.0258 130.144 88.8113 134.669C92.5969 139.194 97.6341 142.49 103.286 144.142C108.938 145.793 114.95 145.724 120.563 143.944C126.176 142.165 131.137 138.754 134.819 134.143C138.502 129.533 140.739 123.93 141.249 118.043C141.759 112.156 140.519 106.249 137.685 101.07C134.851 95.8902 130.551 91.6709 125.328 88.9451C120.105 86.2194 114.195 85.1097 108.344 85.7564H108.274C100.442 86.6407 93.2789 90.6079 88.3568 96.7875C83.4348 102.967 81.1553 110.854 82.0187 118.719ZM135.252 112.78C135.775 117.493 134.894 122.256 132.721 126.467C130.548 130.678 127.179 134.147 123.042 136.436C118.905 138.725 114.185 139.731 109.478 139.326C104.772 138.922 100.29 137.126 96.6004 134.165C92.9106 131.204 90.1784 127.211 88.7491 122.691C87.3198 118.171 87.2576 113.327 88.5705 108.771C89.8834 104.215 92.5124 100.153 96.125 97.0975C99.7375 94.042 104.172 92.1305 108.866 91.6048C115.162 90.9024 121.477 92.7384 126.425 96.7091C131.373 100.68 134.548 106.46 135.252 112.78Z" fill="white" stroke="#2E353A" stroke-linecap="round" stroke-linejoin="round"/>
<path d="M80.281 118.901C80.9302 124.771 83.2985 130.316 87.0866 134.835C90.8746 139.354 95.9122 142.644 101.563 144.29C107.213 145.935 113.222 145.861 118.831 144.078C124.44 142.295 129.396 138.883 133.073 134.272C136.75 129.661 138.983 124.06 139.489 118.176C139.996 112.291 138.753 106.388 135.918 101.213C133.083 96.0373 128.783 91.822 123.562 89.0995C118.342 86.3771 112.434 85.2698 106.586 85.9177C102.701 86.3481 98.9388 87.5429 95.514 89.4336C92.0891 91.3244 89.069 93.8742 86.6261 96.9372C84.1832 100 82.3654 103.517 81.2767 107.285C80.188 111.054 79.8496 115.001 80.281 118.901ZM133.594 112.982C134.116 117.693 133.234 122.454 131.06 126.662C128.886 130.87 125.518 134.337 121.382 136.624C117.246 138.91 112.527 139.914 107.822 139.508C103.118 139.103 98.6387 137.306 94.9515 134.344C91.2643 131.383 88.5347 127.39 87.1076 122.872C85.6806 118.353 85.6204 113.511 86.9345 108.957C88.2487 104.404 90.8782 100.345 94.4906 97.2918C98.1029 94.2389 102.536 92.33 107.229 91.8064C110.345 91.4588 113.499 91.7307 116.51 92.6067C119.522 93.4828 122.332 94.9457 124.78 96.912C127.228 98.8783 129.267 101.309 130.779 104.067C132.292 106.824 133.248 109.853 133.594 112.982Z" fill="white" stroke="#2E353A" stroke-linecap="round" stroke-linejoin="round"/>
<path d="M163.181 105.858L142.556 108.152C140.968 108.328 139.824 109.764 140 111.358L140.155 112.771C140.331 114.365 141.761 115.514 143.349 115.338L163.974 113.044C165.562 112.868 166.706 111.432 166.53 109.838L166.374 108.425C166.199 106.831 164.769 105.682 163.181 105.858Z" fill="white" stroke="#2E353A" stroke-linecap="round" stroke-linejoin="round"/>
<path d="M157.208 111.812L156.876 108.787C156.733 107.477 157.113 106.162 157.935 105.134C158.756 104.105 159.95 103.446 161.256 103.302L202.034 98.7741C202.863 98.6773 203.704 98.7459 204.506 98.9761C205.309 99.2063 206.059 99.5935 206.712 100.115C207.366 100.637 207.91 101.284 208.313 102.017C208.717 102.751 208.973 103.557 209.065 104.391V104.592C209.161 105.425 209.093 106.268 208.864 107.074C208.634 107.88 208.249 108.633 207.729 109.289C207.209 109.945 206.565 110.491 205.834 110.896C205.104 111.302 204.3 111.558 203.47 111.651L162.692 116.178C161.389 116.326 160.08 115.949 159.052 115.131C158.025 114.313 157.362 113.12 157.208 111.812Z" fill="#2E353A" stroke="#2E353A" stroke-linecap="round" stroke-linejoin="round"/>
<path d="M191.187 107.416C191.187 107.416 191.458 114.575 192.683 115.583C193.909 116.592 198.227 116.41 198.71 114.464C200.015 109.513 199.252 98.9556 198.368 98.5523C197.484 98.1489 192.342 97.2818 191.799 99.4699C191.395 102.099 191.19 104.755 191.187 107.416Z" fill="white" stroke="#2E353A" stroke-linecap="round" stroke-linejoin="round"/>
<path d="M181.233 109.473C181.233 109.473 180.912 117.812 182.408 119.112C183.905 120.413 189.499 120.675 190.343 118.467C192.492 112.861 191.649 100.246 190.544 99.6816C189.439 99.1169 183.704 97.8565 182.78 100.327C181.856 102.797 181.233 109.473 181.233 109.473Z" fill="white" stroke="#2E353A" stroke-linecap="round" stroke-linejoin="round"/>
<path d="M169.984 110.693C169.984 110.693 169.642 119.606 171.239 120.998C172.836 122.389 178.822 122.662 179.726 120.302C182.016 114.313 182.016 101.144 180.831 100.539C179.646 99.9337 172.625 98.2699 171.641 100.912C170.657 103.554 169.984 110.693 169.984 110.693Z" fill="white" stroke="#2E353A" stroke-linecap="round" stroke-linejoin="round"/>
<path d="M159.458 115.825C159.458 115.825 159.116 124.739 160.723 126.13C162.33 127.522 168.477 127.855 169.201 125.435C169.924 123.015 171.491 106.276 170.305 105.661C169.12 105.046 162.109 103.402 161.115 106.044C160.121 108.686 159.458 115.825 159.458 115.825Z" fill="white" stroke="#2E353A" stroke-linecap="round" stroke-linejoin="round"/>
<path d="M189.61 79.787C190.019 83.7589 189.07 87.7524 186.918 91.1107C181.996 98.2901 170.657 98.038 170.657 98.038L170.164 99.7723C169.629 101.195 168.88 102.528 167.945 103.725C170.289 103.148 172.685 102.81 175.096 102.717C176.415 102.755 177.673 103.282 178.628 104.196C179.583 105.11 180.168 106.347 180.269 107.668C180.52 109.896 180.761 110.884 177.808 111.62C174.855 112.356 163.023 116.077 161.296 116.329C159.729 116.551 156.937 113.909 156.274 109.705C156.806 103.241 158.604 96.8582 158.604 90.3544C158.814 88.0845 159.61 85.9088 160.914 84.0422" fill="white"/>
<path d="M189.61 79.787C190.019 83.7589 189.07 87.7524 186.918 91.1107C181.996 98.2901 170.657 98.038 170.657 98.038L170.164 99.7723C169.629 101.195 168.88 102.528 167.945 103.725C170.289 103.148 172.685 102.81 175.096 102.717C176.415 102.755 177.673 103.282 178.628 104.196C179.583 105.11 180.168 106.347 180.269 107.668C180.52 109.896 180.761 110.884 177.808 111.62C174.855 112.356 163.023 116.077 161.296 116.329C159.729 116.551 156.937 113.909 156.274 109.705C156.806 103.241 158.604 96.8582 158.604 90.3544C158.814 88.0845 159.61 85.9088 160.914 84.0422" stroke="#2E353A" stroke-linecap="round" stroke-linejoin="round"/>
<path d="M188.646 74.5436C188.943 75.4869 189.172 76.4508 189.329 77.4275L188.646 74.5436Z" fill="white"/>
<path d="M188.646 74.5436C188.943 75.4869 189.172 76.4508 189.329 77.4275" stroke="#2E353A" stroke-linecap="round" stroke-linejoin="round"/>
<path d="M185.441 65.6299V56.7262" stroke="#2E353A" stroke-linecap="round" stroke-linejoin="round"/>
<path d="M187.902 64.8938V61.1831" stroke="#2E353A" stroke-linecap="round" stroke-linejoin="round"/>
<path d="M170.657 98.038C170.657 98.038 170.657 93.1173 167.734 89.8906" stroke="#2E353A" stroke-linecap="round" stroke-linejoin="round"/>
<path d="M167.633 103.846C166.296 103.985 164.976 104.262 163.696 104.674" stroke="#2E353A" stroke-linecap="round" stroke-linejoin="round"/>
<path d="M176.553 111.651C176.553 111.651 173.961 112.588 173.027 111.439C172.093 110.289 170.747 107.274 171.782 106.76C172.816 106.246 177.587 105.096 178.521 105.409L179.455 105.711" stroke="#2E353A" stroke-width="0.5" stroke-linecap="round" stroke-linejoin="round"/>
<path d="M208 1V60H166V1" fill="white"/>
<path d="M208 1V60H166V1" stroke="#2E353A" stroke-linecap="round" stroke-linejoin="round"/>
<path d="M203.27 55.9195C204.324 55.9195 205.178 55.0617 205.178 54.0036C205.178 52.9455 204.324 52.0878 203.27 52.0878C202.216 52.0878 201.361 52.9455 201.361 54.0036C201.361 55.0617 202.216 55.9195 203.27 55.9195Z" fill="white" stroke="#2E353A" stroke-linecap="round" stroke-linejoin="round"/>
<path d="M153.331 263.225C153.039 263.956 152.603 264.621 152.049 265.179C151.495 265.736 150.834 266.176 150.107 266.472C148.972 266.946 147.465 266.835 145.707 267.823C141.77 270.051 131.917 268.075 124.766 268.831C117.615 269.587 108.012 261.662 108.012 261.662L79.6483 263.225V234.991C79.6483 234.991 109.218 236.231 115.626 233.761C122.034 231.291 129.175 226.087 132.379 226.34C135.583 226.592 161.949 229.556 161.949 229.556L153.331 263.225Z" fill="white" stroke="#2E353A" stroke-linecap="round" stroke-linejoin="round"/>
<path d="M160.613 149.443C166.463 150.093 171.99 152.471 176.494 156.274C180.999 160.078 184.279 165.137 185.919 170.812C187.56 176.487 187.487 182.523 185.711 188.157C183.934 193.79 180.534 198.768 175.939 202.462C171.344 206.155 165.762 208.398 159.898 208.906C154.033 209.414 148.151 208.165 142.994 205.316C137.837 202.468 133.636 198.149 130.925 192.904C128.213 187.659 127.111 181.725 127.759 175.852C128.627 167.979 132.575 160.774 138.735 155.824C144.894 150.873 152.76 148.582 160.603 149.453L160.613 149.443ZM154.707 202.966C159.402 203.491 164.146 202.607 168.34 200.425C172.534 198.244 175.99 194.862 178.27 190.709C180.55 186.555 181.552 181.817 181.149 177.092C180.747 172.366 178.958 167.867 176.008 164.163C173.058 160.459 169.081 157.716 164.579 156.281C160.076 154.846 155.251 154.784 150.714 156.102C146.176 157.42 142.129 160.059 139.086 163.686C136.042 167.312 134.138 171.764 133.614 176.477C132.915 182.797 134.744 189.138 138.699 194.105C142.654 199.072 148.412 202.259 154.707 202.966Z" fill="white" stroke="#2E353A" stroke-linecap="round" stroke-linejoin="round"/>
<path d="M160.794 147.739C166.641 148.391 172.165 150.769 176.666 154.573C181.168 158.376 184.445 163.434 186.083 169.107C187.721 174.781 187.647 180.814 185.87 186.445C184.093 192.076 180.693 197.051 176.099 200.742C171.506 204.433 165.925 206.673 160.064 207.181C154.202 207.688 148.322 206.439 143.167 203.591C138.012 200.743 133.814 196.425 131.104 191.183C128.394 185.94 127.292 180.008 127.94 174.138C128.37 170.238 129.561 166.462 131.445 163.025C133.328 159.588 135.868 156.557 138.919 154.106C141.97 151.654 145.472 149.83 149.226 148.738C152.979 147.645 156.91 147.306 160.794 147.739ZM154.888 201.262C159.582 201.787 164.327 200.903 168.521 198.721C172.715 196.539 176.171 193.158 178.451 189.005C180.731 184.851 181.733 180.113 181.33 175.387C180.928 170.662 179.139 166.163 176.189 162.459C173.239 158.755 169.262 156.012 164.76 154.577C160.257 153.142 155.432 153.079 150.894 154.397C146.357 155.716 142.31 158.355 139.267 161.982C136.223 165.608 134.319 170.06 133.795 174.773C133.099 181.09 134.929 187.427 138.884 192.39C142.839 197.354 148.595 200.537 154.888 201.242V201.262Z" fill="white" stroke="#2E353A" stroke-linecap="round" stroke-linejoin="round"/>
<path d="M150.064 210.253L147.78 230.959C147.604 232.553 148.749 233.988 150.337 234.165L151.744 234.321C153.332 234.498 154.762 233.349 154.938 231.755L157.222 211.049C157.398 209.455 156.253 208.019 154.665 207.843L153.258 207.686C151.67 207.51 150.24 208.659 150.064 210.253Z" fill="white" stroke="#2E353A" stroke-linecap="round" stroke-linejoin="round"/>
<path d="M146.571 276.999H146.37C145.54 276.907 144.736 276.652 144.005 276.247C143.273 275.842 142.629 275.296 142.109 274.639C141.589 273.983 141.203 273.23 140.974 272.424C140.746 271.617 140.678 270.773 140.776 269.94L145.286 229.002C145.356 228.352 145.553 227.723 145.865 227.15C146.178 226.578 146.601 226.073 147.108 225.664C147.616 225.256 148.199 224.952 148.824 224.77C149.449 224.588 150.103 224.532 150.75 224.605L153.763 224.938C155.068 225.082 156.263 225.742 157.084 226.77C157.905 227.799 158.286 229.113 158.142 230.423L153.632 271.412C153.539 272.245 153.282 273.051 152.878 273.784C152.474 274.517 151.93 275.163 151.277 275.684C150.624 276.206 149.875 276.593 149.073 276.824C148.27 277.055 147.431 277.124 146.601 277.029L146.571 276.999Z" fill="#2E353A" stroke="#2E353A" stroke-linecap="round" stroke-linejoin="round"/>
<path d="M149.313 259.08C149.313 259.08 156.444 259.353 157.449 260.583C158.453 261.813 158.272 266.139 156.334 266.633C151.402 267.944 140.886 267.177 140.485 266.29C140.083 265.403 139.219 260.24 141.399 259.685C144.018 259.282 146.664 259.08 149.313 259.08Z" fill="white" stroke="#2E353A" stroke-linecap="round" stroke-linejoin="round"/>
<path d="M151.402 249.108C151.402 249.108 159.709 248.785 161.004 250.288C162.3 251.79 162.561 257.407 160.362 258.254C154.777 260.401 142.212 259.564 141.65 258.455C141.087 257.346 139.832 251.588 142.293 250.661C144.753 249.733 151.402 249.108 151.402 249.108Z" fill="white" stroke="#2E353A" stroke-linecap="round" stroke-linejoin="round"/>
<path d="M152.618 237.784C152.618 237.784 161.497 237.451 162.883 239.055C164.269 240.658 164.54 246.668 162.2 247.565C156.173 249.874 143.116 249.864 142.503 248.684C141.891 247.505 140.244 240.446 142.875 239.448C145.507 238.45 152.618 237.784 152.618 237.784Z" fill="white" stroke="#2E353A" stroke-linecap="round" stroke-linejoin="round"/>
<path d="M157.73 227.227C157.73 227.227 166.609 226.884 167.995 228.487C169.381 230.091 169.712 236.282 167.302 237.008C164.891 237.734 148.218 239.297 147.606 238.117C146.993 236.937 145.356 229.879 147.987 228.891C150.619 227.902 157.73 227.227 157.73 227.227Z" fill="white" stroke="#2E353A" stroke-linecap="round" stroke-linejoin="round"/>
<path d="M123.199 257.548C126.702 257.686 130.16 256.724 133.092 254.795C140.244 249.844 139.992 238.47 139.992 238.47L141.72 237.976C143.137 237.438 144.465 236.686 145.657 235.747C145.082 238.097 144.746 240.499 144.653 242.917C144.691 244.242 145.216 245.506 146.126 246.467C147.036 247.427 148.268 248.016 149.584 248.12C151.804 248.362 152.789 248.614 153.532 245.639C154.275 242.665 157.961 230.796 158.212 229.072C158.463 227.348 155.802 224.686 151.613 224.03C145.175 224.565 138.817 226.37 132.339 226.37C130.08 226.581 127.913 227.377 126.051 228.679" fill="white"/>
<path d="M123.199 257.548C126.702 257.686 130.16 256.724 133.092 254.795C140.244 249.844 139.992 238.47 139.992 238.47L141.72 237.976C143.137 237.438 144.465 236.686 145.657 235.747C145.082 238.097 144.746 240.499 144.653 242.917C144.691 244.242 145.216 245.506 146.126 246.467C147.036 247.427 148.268 248.016 149.584 248.12C151.804 248.362 152.789 248.614 153.532 245.639C154.275 242.665 157.961 230.796 158.212 229.072C158.463 227.348 155.802 224.686 151.613 224.03C145.175 224.565 138.817 226.37 132.339 226.37C130.08 226.581 127.913 227.377 126.051 228.679" stroke="#2E353A" stroke-linecap="round" stroke-linejoin="round"/>
<path d="M116.61 256.529C118.014 256.963 119.458 257.257 120.919 257.408L116.61 256.529Z" fill="white"/>
<path d="M116.61 256.529C118.014 256.963 119.458 257.257 120.919 257.408" stroke="#2E353A" stroke-linecap="round" stroke-linejoin="round"/>
<path d="M107.731 253.313H98.8624" stroke="#2E353A" stroke-linecap="round" stroke-linejoin="round"/>
<path d="M106.998 255.783H103.302" stroke="#2E353A" stroke-linecap="round" stroke-linejoin="round"/>
<path d="M140.013 238.47C140.013 238.47 135.111 238.47 131.897 235.536" stroke="#2E353A" stroke-linecap="round" stroke-linejoin="round"/>
<path d="M145.798 235.425C145.936 234.082 146.212 232.757 146.622 231.472" stroke="#2E353A" stroke-linecap="round" stroke-linejoin="round"/>
<path d="M153.572 244.379C153.572 244.379 154.506 241.777 153.361 240.839C152.216 239.902 149.213 238.551 148.7 239.589C148.188 240.628 147.043 245.427 147.355 246.355L147.666 247.293" stroke="#2E353A" stroke-width="0.5" stroke-linecap="round" stroke-linejoin="round"/>
<path d="M17.456 275.94H102.378V234.023H17.456" fill="white"/>
<path d="M17.456 275.94H102.378V234.023H17.456" stroke="#2E353A" stroke-linecap="round" stroke-linejoin="round"/>
<path d="M94.2422 271.211C94.2422 271.59 94.3541 271.96 94.5638 272.275C94.7735 272.59 95.0715 272.836 95.4202 272.981C95.7689 273.126 96.1527 273.164 96.5228 273.09C96.893 273.016 97.2331 272.833 97.4999 272.566C97.7668 272.298 97.9486 271.956 98.0222 271.585C98.0959 271.213 98.0581 270.828 97.9136 270.478C97.7692 270.128 97.5246 269.828 97.2108 269.618C96.8969 269.407 96.528 269.295 96.1506 269.295C95.6444 269.295 95.159 269.497 94.8011 269.856C94.4433 270.215 94.2422 270.703 94.2422 271.211Z" fill="white" stroke="#2E353A" stroke-linecap="round" stroke-linejoin="round"/>
</svg>
