<svg width="89" height="74" viewBox="0 0 89 74" fill="none" xmlns="http://www.w3.org/2000/svg">
<path d="M75.783 3.51353C84.748 8.05853 87.6005 17.3505 88.008 25.4305C88.497 33.46 86.4595 40.328 83.6885 47.4485C80.9175 54.569 77.413 61.9925 69.426 66.7395C61.439 71.4865 48.9695 73.557 36.337 73.658C23.7045 73.8095 10.9905 71.9915 5.12249 66.79C-0.745509 61.639 0.313992 53.1045 1.37349 46.59C2.43299 40.0755 3.57399 35.581 7.32299 32.6015C11.072 29.6725 17.5105 28.208 22.808 22.9055C28.1055 17.603 32.3435 8.41203 41.9605 3.71554C51.659 -0.930465 66.7365 -1.08197 75.783 3.51353Z" fill="#95D9FF"/>
</svg>
